<?xml version="1.0" encoding="utf-8"?>
<!-- Generator: Adobe Illustrator 16.0.0, SVG Export Plug-In . SVG Version: 6.00 Build 0)  -->
<!DOCTYPE svg PUBLIC "-//W3C//DTD SVG 1.1//EN" "http://www.w3.org/Graphics/SVG/1.1/DTD/svg11.dtd">
<svg version="1.1" id="Layer_1" xmlns="http://www.w3.org/2000/svg" xmlns:xlink="http://www.w3.org/1999/xlink" x="0px" y="0px"
	 width="500px" height="500px" viewBox="0 0 500 500" enable-background="new 0 0 500 500" xml:space="preserve">
<g>
	<g>
		<path fill-rule="evenodd" clip-rule="evenodd" fill="#7A5649" d="M0.499,500.5c0-165.585,0.003-331.17-0.046-496.755
			c0-1.871,0.421-2.292,2.292-2.292C168.662,1.503,334.58,1.5,500.497,1.5c0.466,0.863,0.236,1.797,0.236,2.694
			c0.012,164.498,0.012,328.995,0.008,493.493c0,3.426,0.349,3.057-3.065,3.057c-164.83,0.005-329.661,0.005-494.491-0.007
			C2.291,500.736,1.359,500.965,0.499,500.5z"/>
		<path fill-rule="evenodd" clip-rule="evenodd" fill="#FFFFFF" d="M0.499,500.5c165.576,0,331.151-0.001,496.728-0.001
			c3.27,0,3.271,0,3.271-3.27c0-165.243,0-330.487,0-495.73c0.154,0.109,0.521-0.252,0.505,0.25
			c-0.021,0.665-0.006,1.331-0.006,1.996c0,165.003-0.004,330.005,0.047,495.009c0,1.87-0.421,2.292-2.292,2.291
			C333.416,500.995,168.08,501,2.745,500.969C2.014,500.969,1.053,501.544,0.499,500.5z"/>
		<path fill-rule="evenodd" clip-rule="evenodd" fill="#FFFEFE" d="M313.06,180.43c2.579,1.468,5.173,2.571,7.507,4.175
			c7.538,5.18,10.051,12.451,9.052,21.228c-0.433,3.803-1.344,7.516-2.34,11.206c-0.107,0.4-0.126,0.981-0.395,1.155
			c-1.951,1.26-2.898,2.286-0.115,3.864c0.92,0.521-0.083,1.476-0.997,1.461c-3.125-0.051-1.915,2.752-2.756,4.17
			c-0.844,1.424,0.525,1.815,1.515,2.193c1.203,0.461,0.493,1.197,0.28,1.81c-1.17,3.368-2.305,6.751-3.604,10.07
			c-0.484,1.237-0.338,1.796,0.965,2.109c2.304,0.553,3.9,2.11,5.315,3.905c1.051,1.332,1.864,1.471,2.92-0.197
			c2.086-3.294,4.354-6.479,6.648-9.634c1.069-1.472,2.299-2.85,3.595-4.13c3.096-3.061,3.129-3.027,1.081-6.796
			c-1.065-1.958-0.451-3.402,1.758-4.132c5.446-1.8,8.646-5.308,9.661-10.595c-8.712-1.575-14.043-6.807-15.188-16.274
			c-2.099-17.33,3.853-31.797,16.81-43.396c1.983-1.776,4.378-2.988,6.882-3.951c10.447-4.018,20.069,0.967,22.495,11.895
			c3.005,13.54,0.007,26.045-8.066,37.031c-4.47,6.083-9.697,11.884-17.611,13.909c-0.694,0.178-1.007,0.586-1.075,1.184
			c-0.207,1.813-0.428,3.63-0.494,5.452c-0.033,0.893,0.165,1.843,1.165,2.307c1.119,0.52,1.017,1.4,0.613,2.31
			c-0.978,2.204-0.662,3.299,1.644,3.91c6.028,1.598,10.932,5.055,15.564,9.011c2.717,2.321,3.434,4.83,2.029,7.194
			c-0.33,0.555-0.771,1.293-1.303,1.441c-4.62,1.283-6.681,5.468-9.709,8.513c-2.869,2.887-2.794,3.062-0.043,5.971
			c1.356,1.434,1.539,2.871,0.631,4.512c-0.683,1.234-1.479,2.406-2.151,3.645c-0.682,1.256-0.873,2.492,0.368,3.606
			c1.36,1.22,1.229,2.854,0.987,4.421c-1.981,12.85-6.052,24.953-12.967,36.03c-0.175,0.281-0.595,0.584-0.549,0.802
			c1.075,5.053-4.371,6.261-5.871,9.928c-1.578,3.86-4.322,7.25-6.606,10.813c-1.568,2.446-3.036,4.989-4.87,7.227
			c-7.541,9.199-10.75,20.042-12.494,31.536c-2.073,13.668-2.547,27.46-3.502,41.217c-0.442,6.379-0.894,12.755-2.388,19.01
			c-0.897,3.76-2.87,6.125-6.725,7.483c-20.192,7.113-40.763,12.57-62.089,14.874c-25.355,2.738-50.283,1.194-74.38-7.904
			c-16.896-6.379-31.589-16.134-44.141-29.121c-2.007-2.076-4.019-4.149-6.083-6.169c-4.934-4.829-6.567-11.001-7.221-17.574
			c-1.401-14.083-0.015-28.064,1.688-42.017c1.52-12.448,3.651-24.804,6.147-37.097c9.117-44.893,27.471-85.854,52.792-123.83
			c3.217-4.824,6.474-9.663,11.345-13.128c1.681-1.196,1.057-2.806-0.186-4.06c-0.506-0.51-1.251-0.796-1.908-1.144
			c-3.319-1.754-4.464-5.158-2.843-8.526c0.251-0.522,0.508-1.2,1.161-1.178c2.567,0.084,2.384-1.8,2.51-3.427
			c0.311-4.02,1.261-4.906,5.279-4.619c1.4,0.1,2.829,0.279,4.167,0.682c5.113,1.54,10.356,1.274,15.587,1.338
			c1.524,0.019,1.917-0.672,1.679-1.986c-0.282-1.551-0.513-3.118-0.922-4.636c-0.961-3.563-1.04-6.881,1.911-9.684
			c0.627-0.596,1.454-1.526,0.975-2.378c-0.427-0.76-1.557-0.265-2.321-0.155c-4.589,0.662-9.122,0.263-13.636-0.57
			c-3.519-0.649-4.087-2.154-1.744-4.741c4.642-5.126,9.958-9.547,15.117-14.12c3.957-3.508,6.249-7.503,7.795-12.786
			c2.155-7.365,3.99-14.896,6.805-22.072c2.61-6.657,7.599-11.217,13.81-14.456c2.903-1.514,5.478-3.369,7.921-5.536
			c6.421-5.697,14.151-8.464,22.543-9.578c0.917-0.122,1.626-0.143,2.243-1.113c4.394-6.904,15.253-6.788,19.816,1.883
			c0.703,1.335,1.471,1.984,2.765,2.454c9.102,3.306,17.599,7.771,25.528,13.334c3.113,2.184,5.234,4.747,5.812,8.783
			c0.888,6.194,2.976,12.094,6.474,17.354c1.562,2.349,2.266,4.757,1.755,7.513c-0.301,1.622,0.271,2.685,1.546,3.834
			c6.601,5.96,13.074,12.063,19.563,18.148c0.544,0.511,1.622,0.93,1.118,1.964c-0.473,0.969-1.386,1.373-2.502,1.254
			c-3.965-0.423-7.939-0.765-11.895-1.265c-3.293-0.416-6.582-0.917-9.834-1.573c-1.241-0.25-1.668-0.073-1.682,1.183
			c-0.019,1.578-0.15,3.154-0.192,4.732c-0.045,1.71-0.587,2.879-2.575,2.933c-2.117,0.056-2.482,1.616-2.566,3.303
			c-0.226,4.566,1.257,8.848,2.221,13.216c0.717,3.241,1.468,6.476,2.063,9.739c0.329,1.799,0.224,3.628-0.249,5.438
			c-1.054,4.03-3.301,5.491-7.389,4.562c-1.282-0.292-2.551-0.774-3.726-1.367c-1.354-0.683-2.084-0.487-2.577,1.015
			c-0.592,1.802-0.214,3.882-1.497,5.464C315.559,177.625,314.332,178.964,313.06,180.43z"/>
		<path fill-rule="evenodd" clip-rule="evenodd" fill="#7A5749" d="M274.643,202.04c2.612,0.248,5.347,0.451,8.065,0.777
			c5.646,0.676,11.267,0.628,16.898-0.211c3.525-0.525,5.793-2.226,6.442-5.863c0.247-1.383,0.68-2.734,1.041-4.096
			c0.258-0.973,0.57-1.95,1.423-2.563c1.909-1.372,2.727-3.296,2.858-5.547c0.094-1.601,0.802-1.411,1.934-0.916
			c9.49,4.152,13.278,11.757,10.918,22.116c-0.756,3.321-1.837,6.541-3.206,9.667c-0.349,0.796-1.033,1.524,0.273,2.493
			c0.904,0.67,0.453,1.942-1.069,2.091c-0.516,0.05-1.244-0.265-1.345,0.657c-0.077,0.713,0.077,1.234,0.821,1.604
			c2.477,1.229,0.264,3.048,0.473,4.58c0.179,1.314-0.905,1.346-1.876,1.189c-1.233-0.2-1.343,0.564-1.369,1.487
			c-0.154,5.415-1.594,10.327-4.549,15.012c-3.761,5.961-1.675,17.635,4.047,23.645c1.831,1.922,1.552,2.845-0.153,4.364
			c-2.295,2.045-4.437,4.264-6.594,6.457c-0.924,0.939-1.429,0.897-2.209-0.254c-10.308-15.204-21.364-29.857-32.744-44.271
			c-1.901-2.408-2.336-5.058-1.406-7.969c0.58-1.816,1.754-2.548,3.616-2.087c1.127,0.278,2.244,0.591,3.364,0.898
			c2.323,0.638,3.092-0.068,2.661-2.475c-0.339-1.887-1.451-3.359-2.77-4.627c-2.514-2.42-5.145-4.718-7.692-7.103
			c-1.696-1.587-3.45-3.159-4.24-5.447c-0.585-1.697-0.686-3.148,1.795-3.217C271.539,202.388,273.021,202.183,274.643,202.04z"/>
		<path fill-rule="evenodd" clip-rule="evenodd" fill="#7A5749" d="M341.148,188.714c0.653-12.841,5.113-24.023,14.585-32.98
			c2.067-1.955,4.516-3.313,7.202-4.327c6.103-2.303,12.26,1.289,14.798,6.311c2.984,5.907,2.88,12.167,1.908,18.488
			c-0.58,3.778-1.294,7.59-2.984,11.009c-3.767,7.618-8.32,14.65-15.877,19.201c-6.913,4.164-14.814,1.413-17.597-6.209
			C341.831,196.504,341.111,192.702,341.148,188.714z"/>
		<path fill-rule="evenodd" clip-rule="evenodd" fill="#F9F8F7" d="M346.702,174.05c2.191-6.461,5.314-12.324,10.743-16.701
			c2.235-1.803,4.763-3.019,7.568-3.605c4.486-0.938,7.79,1.185,10.707,4.265c-0.402,0.603-0.816,0.263-1.206-0.029
			c-4.453-3.333-9.024-2.848-13.493-0.188c-6.594,3.927-10.892,9.817-13.786,16.817C346.787,174.681,346.48,174.618,346.702,174.05z
			"/>
		<path fill-rule="evenodd" clip-rule="evenodd" fill="#C8B9B3" d="M346.702,174.05c0.179,0.186,0.355,0.372,0.533,0.558
			c-0.687,2.269-1.373,4.538-2.06,6.807C345.046,178.801,345.547,176.35,346.702,174.05z"/>
	</g>
</g>
</svg>
