<?xml version="1.0" encoding="utf-8"?>
<!-- Generator: Adobe Illustrator 16.0.0, SVG Export Plug-In . SVG Version: 6.00 Build 0)  -->
<!DOCTYPE svg PUBLIC "-//W3C//DTD SVG 1.1//EN" "http://www.w3.org/Graphics/SVG/1.1/DTD/svg11.dtd">
<svg version="1.1" id="Layer_1" xmlns="http://www.w3.org/2000/svg" xmlns:xlink="http://www.w3.org/1999/xlink" x="0px" y="0px"
	 width="500px" height="500px" viewBox="0 0 500 500" enable-background="new 0 0 500 500" xml:space="preserve">
<g>
	<g>
		<path fill-rule="evenodd" clip-rule="evenodd" fill="#09A550" d="M500.499,500.499c-165.916,0-331.833-0.004-497.75,0.046
			c-1.875,0.001-2.297-0.422-2.297-2.296c0.05-165.166,0.05-330.333,0-495.5c0-1.875,0.422-2.297,2.297-2.297
			C168.666,0.503,334.583,0.5,500.499,0.5c0.465,0.865,0.235,1.8,0.235,2.699c0.012,164.868,0.012,329.734,0,494.603
			C500.734,498.699,500.964,499.635,500.499,500.499z"/>
		<path fill-rule="evenodd" clip-rule="evenodd" fill="#FFFFFF" d="M500.499,500.499c0-166.666,0-333.333,0-500
			c0.153,0.109,0.521-0.253,0.505,0.25c-0.021,0.666-0.005,1.333-0.005,2c0,165.167,0.001,330.333-0.03,495.5
			C500.969,498.98,501.545,499.944,500.499,500.499z"/>
		<path fill-rule="evenodd" clip-rule="evenodd" fill="#FFFFFF" d="M222.116,248.191c0-28.494-0.004-56.988,0.012-85.483
			c0.001-1.499,0.139-2.702-2.103-2.665c-1.978,0.033-2.297,0.738-2.297,2.493c0,18.996-0.073,37.992-0.135,56.987
			c-0.005,1.499-0.049,3-0.119,4.497c-0.248,5.28-4.03,8.697-9.566,8.749c-4.267,0.04-9.339-3.217-9.458-8.625
			c-0.543-24.745-0.717-49.489,0.182-74.222c0.45-12.388,11.75-23.885,24.16-24.604c18.39-1.065,36.82-1.184,55.202,0.029
			c12.708,0.839,24.001,12.806,24.563,25.602c0.848,19.316,0.291,38.652,0.353,57.979c0.016,5.08-0.109,10.164-0.323,15.24
			c-0.191,4.545-3.12,7.606-7.765,8.421c-4.563,0.8-9.282-1.438-10.982-5.183c-0.402-0.887-0.234-1.804-0.238-2.706
			c-0.082-20.662-0.179-41.325-0.172-61.987c0.001-2.078-0.557-2.772-2.645-2.648c-1.445,0.086-1.922,0.544-1.804,1.92
			c0.085,0.993,0.018,1.999,0.017,2.998c-0.026,49.573-0.035,99.146-0.098,148.72c-0.009,7.244-0.157,14.488-0.633,21.727
			c-0.252,3.844-2.602,6.03-5.547,7.741c-5.518,3.205-13.988,1.438-17.886-3.581c-1.071-1.378-1.333-3.014-1.486-4.688
			c-0.633-6.898-0.549-13.817-0.559-20.73c-0.036-26.411-0.04-52.822-0.006-79.234c0.002-1.765-0.163-2.714-2.36-2.638
			c-1.891,0.066-2.097,0.777-2.094,2.371c0.036,21.912,0.047,43.825-0.007,65.737c-0.026,10.83-0.146,21.661-0.322,32.489
			c-0.098,6.033-3.688,10.288-9.429,11.496c-6.494,1.367-12.589-1.205-15.185-6.356c-0.783-1.553-0.867-3.194-0.867-4.865
			c-0.003-28.327-0.002-56.653-0.002-84.98C222.383,248.191,222.25,248.191,222.116,248.191z"/>
		<path fill-rule="evenodd" clip-rule="evenodd" fill="#FFFFFF" d="M400.993,161.878c5.699,0.068,10.243,1.074,14.36,3.752
			c15.017,9.769,29.771,19.925,43.765,31.109c10.473,8.369,12.902,24.668,5.629,36.007c-8.864,13.818-18.65,27.004-28.152,40.383
			c-4.388,6.18-8.888,12.281-13.439,18.342c-2.931,3.904-6.493,4.961-10.731,3.472c-4.238-1.49-6.89-5.255-7.007-9.665
			c-0.039-1.466,0.555-2.519,1.335-3.627c11.942-16.954,23.845-33.936,35.83-50.86c1.12-1.582,1.099-2.297-0.553-3.485
			c-1.547-1.112-2.063-0.49-2.867,0.652c-5.758,8.171-11.521,16.338-17.329,24.474c-26.232,36.745-51.921,73.879-78.633,110.282
			c-1.525,2.078-3.255,4.006-4.792,6.075c-1.696,2.283-4.028,3.002-6.72,3.184c-7.343,0.497-14.643-6.17-14.771-13.535
			c-0.034-1.944,0.877-3.529,1.838-5.085c7.356-11.917,15.81-23.079,23.846-34.526c11.049-15.736,22.197-31.402,33.366-47.055
			c0.978-1.37,1.101-2.031-0.423-3.065c-1.442-0.978-2.101-1.145-3.249,0.48c-17.304,24.487-34.687,48.918-52.066,73.353
			c-1.737,2.442-3.617,4.784-5.354,7.227c-2.534,3.562-6.11,4.652-10.229,4.361c-6.519-0.459-12.02-6-12.584-12.471
			c-0.231-2.658,0.713-4.855,2.196-6.969c12.157-17.316,24.234-34.689,36.439-51.972c20.568-29.124,41.21-58.196,61.836-87.279
			c0.86-1.213,1.722-2.084-0.173-3.351c-1.556-1.041-2.195-0.966-3.269,0.564c-8.226,11.731-16.525,23.412-24.848,35.075
			c-3.58,5.017-7.218,9.994-10.927,14.916c-3.239,4.298-8.154,4.933-12.786,1.809c-4.382-2.956-5.651-8.197-2.752-12.624
			c8.217-12.543,16.813-24.829,25.609-36.973c5.276-7.285,10.713-14.455,15.942-21.774
			C384.884,165.304,392.686,162.253,400.993,161.878z"/>
		<path fill-rule="evenodd" clip-rule="evenodd" fill="#FFFFFF" d="M27.813,225.969c0.276-6.935,2.674-13.713,8.591-18.997
			c12.993-11.6,26.448-22.636,40.163-33.373c9.131-7.148,24.849-6.797,34.082,0.952c5.46,4.583,9.693,10.296,14.221,15.716
			c11.696,14,23.546,27.875,34.68,42.334c2.929,3.804,3.017,7.313,0.548,11.06c-2.332,3.539-6.504,5.278-10.571,4.505
			c-1.553-0.294-2.689-1.027-3.707-2.249c-13.265-15.934-26.591-31.816-39.833-47.769c-1.268-1.527-2.07-1.909-3.688-0.434
			c-1.201,1.095-1.073,1.67-0.15,2.775c8.172,9.777,16.325,19.571,24.425,29.407c27.161,32.981,54.838,65.539,81.522,98.914
			c1.351,1.69,2.591,3.469,3.898,5.193c3.03,3.998,2.359,8.176-0.209,11.828c-3.287,4.676-7.653,7.777-13.958,6.823
			c-2.539-0.384-4.229-1.8-5.821-3.509c-10.221-10.972-19.439-22.797-29.051-34.286c-11.638-13.91-23.206-27.879-34.708-41.902
			c-1.27-1.548-1.887-1.312-3.241-0.236c-1.408,1.119-1.346,1.768-0.251,3.084c19.046,22.929,38.045,45.896,57.037,68.869
			c2.068,2.502,3.941,5.169,6.057,7.628c2.358,2.742,2.703,5.923,1.982,9.174c-1.389,6.265-8.526,13.184-17.69,10.105
			c-1.849-0.62-3.046-1.969-4.235-3.366c-22.392-26.33-44.419-52.967-66.487-79.568c-14.253-17.181-28.514-34.356-42.726-51.57
			c-1.09-1.321-1.75-1.737-3.307-0.472c-1.627,1.322-1.129,2.051-0.073,3.325c12.12,14.622,24.2,29.276,36.252,43.954
			c1.629,1.984,3.537,3.84,4.368,6.344c1.277,3.846-0.723,8.446-4.396,10.757c-3.155,1.985-8.401,2.47-11.582-1.157
			c-10.548-12.023-20.868-24.237-30.949-36.652c-5.355-6.595-10.568-13.305-15.918-19.902
			C29.157,238.429,27.772,232.827,27.813,225.969z"/>
		<path fill-rule="evenodd" clip-rule="evenodd" fill="#FFFFFF" d="M250.683,369.5c16.476-0.018,29.83,13.333,29.815,29.808
			c-0.015,16.339-13.343,29.673-29.68,29.69c-16.477,0.019-29.832-13.331-29.818-29.805
			C221.015,382.856,234.347,369.519,250.683,369.5z"/>
		<path fill-rule="evenodd" clip-rule="evenodd" fill="#FFFFFF" d="M39.3,146.533c11.91-0.636,22.601,11.667,22.567,21.886
			c-0.043,12.822-10.161,23.204-22.705,23.319c-11.946,0.11-22.741-11.484-22.577-22.48C16.771,156.762,26.827,146.566,39.3,146.533
			z"/>
		<path fill-rule="evenodd" clip-rule="evenodd" fill="#FFFFFF" d="M453.146,136.372c12.641,0.128,22.821,10.314,22.749,22.66
			c-0.063,10.752-9.934,22.739-22.497,22.476c-12.474-0.261-22.601-10.355-22.687-22.187
			C430.628,147.693,440.979,135.794,453.146,136.372z"/>
		<path fill-rule="evenodd" clip-rule="evenodd" fill="#FFFFFF" d="M272.684,98.057c1.361,12.516-11.44,22.73-22.957,22.223
			c-12.309-0.542-20.863-9.898-21.401-23.16c-0.486-11.989,10.999-21.976,22.46-21.896C260.763,75.293,273.871,83.88,272.684,98.057
			z"/>
	</g>
</g>
</svg>
