<?xml version="1.0" encoding="utf-8"?>
<!-- Generator: Adobe Illustrator 16.0.0, SVG Export Plug-In . SVG Version: 6.00 Build 0)  -->
<!DOCTYPE svg PUBLIC "-//W3C//DTD SVG 1.1//EN" "http://www.w3.org/Graphics/SVG/1.1/DTD/svg11.dtd">
<svg version="1.1" id="Layer_1" xmlns="http://www.w3.org/2000/svg" xmlns:xlink="http://www.w3.org/1999/xlink" x="0px" y="0px"
	 width="500px" height="500px" viewBox="0 0 500 500" enable-background="new 0 0 500 500" xml:space="preserve">
<g>
	<g>
		<path fill-rule="evenodd" clip-rule="evenodd" fill="#2A3A91" d="M500.499,500.499c-165.889,0-331.778-0.005-497.667,0.061
			c-2.116,0.001-2.383-0.537-2.382-2.478c0.053-165.055,0.053-330.11,0-495.167c-0.001-1.94,0.267-2.478,2.382-2.477
			C168.722,0.505,334.61,0.5,500.499,0.5c0.464,0.865,0.235,1.8,0.235,2.699c0.012,164.868,0.012,329.734,0,494.603
			C500.734,498.699,500.963,499.635,500.499,500.499z"/>
		<path fill-rule="evenodd" clip-rule="evenodd" fill="#FFFFFF" d="M500.499,500.499c0-166.666,0-333.333,0-500
			c0.153,0.109,0.521-0.253,0.505,0.25c-0.021,0.666-0.005,1.333-0.005,2c0,165.167,0.001,330.333-0.03,495.5
			C500.969,498.98,501.545,499.944,500.499,500.499z"/>
		<path fill-rule="evenodd" clip-rule="evenodd" fill="#FFFFFF" d="M320.562,204.508c-5.745,0-11.49,0.062-17.233-0.037
			c-1.74-0.03-2.684,0.471-3.409,2.134c-11.042,25.321-22.149,50.614-33.254,75.908c-0.603,1.37-1.157,2.807-2.02,4.007
			c-1.047,1.458-0.648,2.257,0.608,3.286c8.375,6.854,16.768,13.692,24.681,21.085c3.042,2.843,5.945,5.835,8.872,8.798
			c6.616,6.699,8.007,14.794,6.573,23.788c-2.529,15.869-7.779,30.963-12.906,46.09c-2.643,7.797-5.635,15.476-8.412,23.229
			c-2.271,6.343-6.311,10.854-12.868,12.93c-9.256,2.932-19.869-2.309-23.103-11.48c-1.612-4.574-1.533-9.182,0.162-13.694
			c6.234-16.594,11.987-33.348,16.961-50.366c0.187-0.638,0.336-1.287,0.488-1.935c2.003-8.482,2.916-5.731-3.697-11.627
			c-11.933-10.638-24.419-20.618-36.969-30.517c-1.629-1.286-3.245-2.633-4.64-4.157c-1.155-1.263-1.553-0.767-2.029,0.423
			c-3.803,9.496-7.691,18.96-11.392,28.496c-2.017,5.195-3.548,10.581-5.602,15.76c-3.686,9.292-10.57,16.009-18.319,21.957
			c-12.51,9.603-26.49,16.57-40.907,22.733c-7.262,3.104-14.538,6.192-22.152,8.379c-10.598,3.042-22.606-5.657-23.114-16.76
			c-0.424-9.288,4.424-16.378,13.161-19.613c16.651-6.164,32.85-13.293,47.807-22.989c1.394-0.903,2.671-1.992,4.085-2.861
			c4.53-2.785,5.209-7.748,6.785-12.125c5.327-14.803,11.253-29.36,17.444-43.816c2.719-6.349,5.779-12.581,8.052-19.087
			c9.097-26.042,21.65-50.604,32.231-76.007c1.497-3.594,1.55-3.587-2.204-3.567c-6.492,0.034-12.977-0.001-19.468,0.477
			c-4.067,0.299-7.304,1.838-10.225,4.544c-8.709,8.069-16.303,17.106-23.351,26.625c-6.479,8.749-17.93,9.396-25.248,1.413
			c-4.444-4.849-5.677-12.63-1.908-18.083c10.495-15.188,22.126-29.393,37.53-40.023c6.34-4.375,13.607-5.609,21.029-6.334
			c9.712-0.949,19.459-0.996,29.196-0.768c8.981,0.21,17.952,0.825,26.933,1.145c4.988,0.178,10.009,0.055,14.911,1.068
			c9.987,2.064,17.921,7.512,23.806,15.695c2.094,2.912,4.291,4.017,7.777,3.958c10.158-0.169,20.324,0.003,30.483,0.069
			c8.103,0.052,14.604-2.404,20.148-8.435c6.883-7.487,13.578-15.1,19.652-23.255c4.574-6.141,12.025-8.554,18.544-6.021
			c7.272,2.827,11.274,9.286,10.489,17.163c-0.276,2.775-1.426,5.298-3.075,7.547c-8.143,11.095-16.801,21.751-27.138,30.907
			c-5.822,5.157-11.964,9.897-19.736,11.808c-6.33,1.556-12.814,2.008-19.295,2.262c-4.905,0.192-9.824,0.038-14.737,0.038
			C320.561,204.615,320.562,204.562,320.562,204.508z"/>
		<path fill-rule="evenodd" clip-rule="evenodd" fill="#FFFFFF" d="M297.318,75.002c21.287-0.421,40.908,17.322,41.026,40.944
			c0.113,22.692-18.398,41.157-41.129,41.175c-22.714,0.018-41.2-18.446-41.156-41.15C256.104,92.574,275.734,74.437,297.318,75.002
			z"/>
	</g>
</g>
</svg>
