<?xml version="1.0" encoding="utf-8"?>
<!-- Generator: Adobe Illustrator 16.0.0, SVG Export Plug-In . SVG Version: 6.00 Build 0)  -->
<!DOCTYPE svg PUBLIC "-//W3C//DTD SVG 1.1//EN" "http://www.w3.org/Graphics/SVG/1.1/DTD/svg11.dtd">
<svg version="1.1" id="Layer_1" xmlns="http://www.w3.org/2000/svg" xmlns:xlink="http://www.w3.org/1999/xlink" x="0px" y="0px"
	 width="500px" height="500px" viewBox="0 0 500 500" enable-background="new 0 0 500 500" xml:space="preserve">
<g>
	<g>
		<path fill-rule="evenodd" clip-rule="evenodd" fill="#4655A5" d="M500.499,500.499c-165.916,0-331.833-0.004-497.75,0.046
			c-1.875,0.001-2.297-0.422-2.297-2.296c0.05-165.166,0.05-330.333,0-495.5c0-1.875,0.422-2.297,2.297-2.297
			C168.666,0.503,334.583,0.5,500.499,0.5c0.466,0.864,0.236,1.8,0.237,2.698c0.012,164.868,0.012,329.735,0,494.603
			C500.735,498.699,500.965,499.635,500.499,500.499z"/>
		<path fill-rule="evenodd" clip-rule="evenodd" fill="#FFFFFF" d="M500.499,500.499c0-166.666,0-333.333,0-500
			c0.153,0.109,0.521-0.253,0.505,0.25c-0.021,0.666-0.005,1.333-0.005,2c0,165.167,0.001,330.333-0.03,495.5
			C500.969,498.98,501.545,499.944,500.499,500.499z"/>
		<path fill-rule="evenodd" clip-rule="evenodd" fill="#FFFFFF" d="M68.074,247.924c0.033-99.238,80.645-179.84,179.872-179.851
			c99.2-0.01,179.836,80.629,179.868,179.874c0.03,99.156-80.785,179.967-179.88,179.867
			C148.623,427.715,68.042,347.119,68.074,247.924z"/>
		<path fill-rule="evenodd" clip-rule="evenodd" fill="#4655A5" d="M336.01,124.71c-5.759,4.625-11.234,9.346-16.407,14.408
			c-23.307,22.808-40.933,49.114-49.743,80.839c-3.789,13.643-5.575,27.552-5.283,41.706c0.039,1.916-0.447,2.476-2.398,2.577
			c-14.174,0.742-28.313,0.14-42.452-0.781c-1.236-0.08-2.104-0.175-2.164-1.907c-1.347-39.352,2.685-77.959,15.866-115.303
			c5.048-14.301,11.285-28.03,19.816-40.647c1.808-2.673,4.342-4.858,5.405-8.04c0.427-1.276,1.523-0.742,2.355-0.673
			c18.017,1.488,35.162,6.202,51.489,13.941C320.705,114.722,328.512,119.291,336.01,124.71z"/>
		<path fill-rule="evenodd" clip-rule="evenodd" fill="#4655A5" d="M286.521,257.371c0.725-28.562,10.231-53.854,26.507-76.795
			c10.872-15.326,23.92-28.548,38.765-40.042c1.415-1.095,2.15-1.084,3.429,0.212c22.315,22.632,36.28,49.565,41.927,80.838
			c0.221,1.221,0.005,1.842-0.925,2.704c-12.354,11.458-27.445,17.996-42.891,23.819c-20.508,7.733-41.847,11.938-63.567,14.372
			c-3.244,0.363-3.252,0.289-3.244-3.089C286.521,258.641,286.521,257.892,286.521,257.371z"/>
		<path fill-rule="evenodd" clip-rule="evenodd" fill="#4655A5" d="M231.151,97.213c-4.839,8.087-8.826,16.276-12.479,24.628
			c-9.545,21.827-15.894,44.582-19.693,68.072c-3.694,22.84-5.223,45.814-4.185,68.939c0.059,1.306-0.166,1.825-1.595,1.592
			c-10.096-1.651-20.2-3.226-30.139-5.733c-1.936-0.488-2.461-1.243-2.5-3.153c-0.606-29.3-3.893-58.266-11.114-86.718
			c-1.983-7.813-4.243-15.553-7.246-23.042c-0.674-1.679-0.409-2.617,0.857-3.811c20.266-19.11,43.99-31.724,71.108-37.984
			C219.659,98.735,225.198,97.709,231.151,97.213z"/>
		<path fill-rule="evenodd" clip-rule="evenodd" fill="#4655A5" d="M337.321,370.307c-6.698,4.953-13.491,9.091-20.596,12.731
			c-17.003,8.715-35.056,13.82-54.016,15.971c-2.951,0.334-3.905-0.991-5.423-3.145c-3.791-5.376-7.58-10.728-10.729-16.51
			c-11.397-20.927-18.494-43.345-23.084-66.632c-1.578-8.005-2.765-16.069-3.808-24.16c-0.198-1.534-0.01-2.071,1.682-1.957
			c14.393,0.977,28.797,1.145,43.209,0.456c1.272-0.061,2.212-0.181,2.636,1.646c6.153,26.492,21.116,47.227,42.12,63.954
			C317.87,359.477,327.125,365.205,337.321,370.307z"/>
		<path fill-rule="evenodd" clip-rule="evenodd" fill="#4655A5" d="M399.567,250.648c0.071,7.048-0.619,13.979-1.724,20.854
			c-4.905,30.543-17.8,57.23-38.693,80.081c-1.804,1.972-3.145,2.358-5.622,1.292c-20.228-8.704-37.88-20.772-51.136-38.656
			c-5.891-7.946-10.171-16.705-13.018-26.194c-0.628-2.094-0.128-2.412,1.876-2.631c30.52-3.336,60.143-10.093,88.019-23.394
			c6.236-2.976,12.208-6.421,18.001-10.183C397.938,251.384,398.497,250.718,399.567,250.648z"/>
		<path fill-rule="evenodd" clip-rule="evenodd" fill="#4655A5" d="M230.971,398.437c-26.183,1.232-77.311-25.123-95.462-49.163
			c5.168-2.436,7.52-7.317,10.124-11.896c6.881-12.102,10.189-25.37,12.352-38.982c1.006-6.33,1.774-12.691,2.079-19.097
			c0.075-1.572,0.468-1.891,2.085-1.49c10.578,2.619,21.233,4.892,32.06,6.212c1.979,0.241,2.113,1.361,2.266,2.861
			c2.711,26.509,8.437,52.319,18.088,77.197c4.419,11.391,9.539,22.462,15.666,33.049
			C230.467,397.54,230.699,397.956,230.971,398.437z"/>
		<path fill-rule="evenodd" clip-rule="evenodd" fill="#4655A5" d="M121.976,332.451c-16.57-24.979-25.127-52.129-25.724-82.217
			c4.591,3.067,8.942,5.778,13.447,8.229c8.272,4.5,16.864,8.298,25.749,11.393c1.959,0.682,2.408,1.521,2.299,3.534
			c-0.771,14.25-2.265,28.372-6.744,42.017c-1.295,3.946-2.869,7.784-4.906,11.426C124.997,328.798,123.676,330.576,121.976,332.451
			z"/>
		<path fill-rule="evenodd" clip-rule="evenodd" fill="#4655A5" d="M124.844,160.231c8.304,27.913,11.808,56.503,12.97,85.787
			c-1.321-0.417-2.491-0.685-3.579-1.146c-10.436-4.42-20.576-9.393-29.638-16.3c-1.912-1.458-3.624-3.176-5.477-4.715
			c-0.626-0.521-0.635-1.063-0.513-1.759c3.944-22.44,12.503-42.961,25.599-61.596C124.285,160.391,124.497,160.374,124.844,160.231
			z"/>
	</g>
</g>
</svg>
