<?xml version="1.0" encoding="utf-8"?>
<!-- Generator: Adobe Illustrator 16.0.0, SVG Export Plug-In . SVG Version: 6.00 Build 0)  -->
<!DOCTYPE svg PUBLIC "-//W3C//DTD SVG 1.1//EN" "http://www.w3.org/Graphics/SVG/1.1/DTD/svg11.dtd">
<svg version="1.1" id="Layer_1" xmlns="http://www.w3.org/2000/svg" xmlns:xlink="http://www.w3.org/1999/xlink" x="0px" y="0px"
	 width="500px" height="500px" viewBox="0 0 500 500" enable-background="new 0 0 500 500" xml:space="preserve">
<g>
	<g>
		<path fill-rule="evenodd" clip-rule="evenodd" fill="#D42127" d="M0.5,250.25c0-82.5,0.007-165-0.047-247.5
			C0.452,0.876,0.875,0.453,2.75,0.454c165.167,0.05,330.333,0.05,495.5,0c1.874,0,2.297,0.422,2.297,2.297
			c-0.051,165.167-0.051,330.333,0,495.5c0,1.874-0.422,2.297-2.297,2.297c-165.166-0.051-330.333-0.051-495.5,0
			c-1.874,0-2.298-0.422-2.297-2.297C0.508,415.584,0.5,332.917,0.5,250.25z"/>
		<path fill-rule="evenodd" clip-rule="evenodd" fill="#FFFFFF" d="M340.259,164.875c-5.019-1.631-10.035-3.271-15.058-4.892
			c-29.61-9.551-59.225-19.092-88.833-28.648c-21.295-6.873-42.578-13.785-63.893-20.597c-1.375-0.439-1.645-0.734-1.161-2.11
			c1.378-3.924,2.571-7.913,3.863-11.868c0.173-0.529,0.034-1.476,1.194-0.97c6.631,2.894,13.639,4.688,20.497,6.911
			c39.253,12.718,78.528,25.371,117.793,38.05c25.253,8.155,50.482,16.379,75.769,24.428c5.289,1.684,10.813,2.615,15.57,5.74
			c9.488,6.235,14.843,14.918,16.198,26.242c0.607,5.071,0.463,10.117,0.467,15.173c0.04,48.495,0.262,96.991-0.09,145.483
			c-0.122,16.774-11.07,31.408-29.229,34.877c-2.902,0.555-5.729,0.707-8.607,0.707c-90.49,0.017-180.981,0.116-271.471-0.086
			c-15.484-0.034-29.129-10.308-33.456-26.201c-1.067-3.921-1.508-7.971-1.507-12.061c0.011-51.077-0.116-102.155,0.081-153.232
			c0.059-15.384,7.968-28.714,24.053-34.394c3.726-1.315,7.608-1.837,11.529-1.838c74.659-0.018,149.317-0.004,223.975,0.003
			c0.731,0,1.463,0,2.193,0C340.179,165.354,340.219,165.115,340.259,164.875z"/>
		<path fill-rule="evenodd" clip-rule="evenodd" fill="#D42127" d="M340.762,342.443c-34.676-0.004-62.875-28.408-62.856-63.314
			c0.019-34.488,28.639-62.957,63.135-62.802c34.96,0.157,63.023,28.428,62.997,63.462
			C404.012,314.26,375.545,342.447,340.762,342.443z"/>
		<path fill-rule="evenodd" clip-rule="evenodd" fill="#D42127" d="M179.765,351.046c-22.318,0-44.636,0.008-66.955-0.006
			c-4.447-0.003-7.688-2.209-9.089-6.077c-1.273-3.517-0.169-7.613,2.772-10.206c1.998-1.76,4.422-2.174,6.978-2.173
			c15.739,0.003,31.479,0.001,47.218,0.001c28.314-0.001,56.628,0,84.942-0.002c2.003,0,4.009,0.028,5.883,0.843
			c3.921,1.703,6.113,5.904,5.397,10.255c-0.618,3.767-4.272,6.952-8.445,7.321c-0.91,0.08-1.831,0.043-2.747,0.043
			C223.735,351.047,201.75,351.047,179.765,351.046z"/>
		<path fill-rule="evenodd" clip-rule="evenodd" fill="#D42127" d="M179.743,319.877c-22.234,0-44.469-0.115-66.702,0.065
			c-7.448,0.061-11.666-7.168-9.073-12.991c1.361-3.058,3.763-4.795,7.029-5.311c1.062-0.168,2.158-0.146,3.239-0.147
			c43.886-0.006,87.771,0,131.657-0.018c3.073-0.001,5.944,0.377,8.316,2.615c2.723,2.568,3.404,5.73,2.43,9.14
			c-1.014,3.543-3.478,5.802-7.214,6.429c-0.978,0.165-1.985,0.208-2.979,0.208C224.211,319.879,201.977,319.876,179.743,319.877z"
			/>
		<path fill-rule="evenodd" clip-rule="evenodd" fill="#D42127" d="M180.02,288.393c-22.568-0.001-45.135,0.011-67.703-0.011
			c-4.419-0.004-8.245-3.145-8.979-7.228c-0.795-4.421,1.477-8.755,5.479-10.436c1.565-0.658,3.224-0.78,4.892-0.78
			c44.136-0.005,88.272-0.009,132.409,0.002c6.61,0.002,10.771,3.53,10.861,9.118c0.087,5.389-3.849,9.309-9.504,9.322
			c-14.407,0.033-28.813,0.012-43.22,0.013C196.175,288.394,188.097,288.394,180.02,288.393z"/>
		<path fill-rule="evenodd" clip-rule="evenodd" fill="#D42127" d="M179.937,257.179c-22.319,0.001-44.639,0.003-66.958-0.001
			c-5.829-0.001-9.65-3.555-9.722-9.017c-0.071-5.422,3.696-9.144,9.527-9.285c3.579-0.087,7.162-0.017,10.743-0.018
			c40.559,0,81.117-0.002,121.675,0.006c2.071,0,4.146-0.087,6.138,0.775c4.244,1.837,6.391,5.796,5.502,10.329
			c-0.824,4.203-4.481,7.197-8.946,7.201C225.242,257.187,202.589,257.178,179.937,257.179z"/>
		<path fill-rule="evenodd" clip-rule="evenodd" fill="#D42127" d="M179.921,225.686c-22.32,0.001-44.641,0.003-66.961,0
			c-5.397-0.001-9.399-3.315-9.692-8.005c-0.357-5.727,3.022-9.692,8.799-10.304c0.659-0.07,1.328-0.081,1.992-0.081
			c43.891-0.003,87.782-0.004,131.673,0c2.689,0,5.332,0.211,7.592,1.923c3.148,2.386,4.505,6.603,3.296,10.268
			c-1.234,3.744-4.63,6.19-8.739,6.192C225.228,225.691,202.574,225.685,179.921,225.686z"/>
		<path fill-rule="evenodd" clip-rule="evenodd" fill="#FFFFFF" d="M391.598,279.438c0.263,27.867-23.587,51.155-51.724,50.659
			c-26.953-0.476-49.621-23.331-49.557-50.832c0.065-28.008,22.903-50.774,50.733-50.575
			C369.213,228.892,391.626,251.394,391.598,279.438z"/>
	</g>
</g>
</svg>
