<?xml version="1.0" encoding="utf-8"?>
<!-- Generator: Adobe Illustrator 16.0.0, SVG Export Plug-In . SVG Version: 6.00 Build 0)  -->
<!DOCTYPE svg PUBLIC "-//W3C//DTD SVG 1.1//EN" "http://www.w3.org/Graphics/SVG/1.1/DTD/svg11.dtd">
<svg version="1.1" id="Layer_1" xmlns="http://www.w3.org/2000/svg" xmlns:xlink="http://www.w3.org/1999/xlink" x="0px" y="0px"
	 width="500px" height="500px" viewBox="0 0 500 500" enable-background="new 0 0 500 500" xml:space="preserve">
<g>
	<g>
		<path fill-rule="evenodd" clip-rule="evenodd" fill="#FBB218" d="M500.499,500.499c-165.916,0-331.833-0.004-497.75,0.046
			c-1.875,0.001-2.297-0.422-2.297-2.296c0.05-165.166,0.05-330.333,0-495.5c0-1.875,0.422-2.297,2.297-2.297
			C168.666,0.503,334.583,0.5,500.499,0.5c0.466,0.864,0.235,1.8,0.235,2.699c0.012,164.868,0.012,329.734,0.001,494.603
			C500.734,498.699,500.965,499.635,500.499,500.499z"/>
		<path fill-rule="evenodd" clip-rule="evenodd" fill="#FFFFFF" d="M500.499,500.499c0-166.666,0-333.333,0-500
			c0.153,0.109,0.521-0.253,0.505,0.25c-0.021,0.666-0.005,1.333-0.005,2c0,165.167,0.001,330.333-0.03,495.5
			C500.969,498.98,501.545,499.944,500.499,500.499z"/>
		<path fill-rule="evenodd" clip-rule="evenodd" fill="#FFFFFF" d="M249.469,407.495c-49.824,0-99.649,0-149.474,0
			c-6.317,0-8.687-2.381-8.688-8.758c-0.004-47.159,0-94.317-0.024-141.476c-0.001-1.88,0.532-3.551,1.186-5.281
			c6.21-16.449,12.34-32.929,18.546-49.379c0.392-1.039,0.302-1.872-0.061-2.833c-6.399-17.001-12.781-34.009-19.167-51.015
			c-0.985-2.625-0.345-5.289-0.047-7.895c2.55-22.295,15.782-36.836,34.511-47.385c2.843-1.602,5.755-2.223,9.033-2.22
			c75.903,0.063,151.807,0.068,227.71-0.007c3.813-0.003,7.149,0.836,10.429,2.7c14.023,7.969,25.04,18.589,30.764,34.054
			c2.194,5.93,2.795,12.116,3.311,18.333c0.071,0.857-0.197,1.627-0.494,2.416c-6.345,16.851-12.659,33.713-19.038,50.55
			c-0.545,1.439-0.47,2.664,0.055,4.06c6.247,16.616,12.441,33.251,18.683,49.87c0.535,1.427,0.81,2.838,0.81,4.364
			c-0.02,47.159-0.016,94.317-0.018,141.476c0,5.925-2.541,8.428-8.551,8.428C349.118,407.496,299.294,407.495,249.469,407.495z"/>
		<path fill-rule="evenodd" clip-rule="evenodd" fill="#FCB217" d="M249.229,393.818c-35.906,0.001-71.813-0.018-107.719,0.048
			c-2.113,0.004-2.898-0.573-3.445-2.689c-4.228-16.374-14.692-26.585-31.072-30.661c-1.687-0.42-2.028-1.099-2.026-2.666
			c0.04-30.824,0.045-61.649-0.01-92.475c-0.003-1.815,0.382-2.389,2.31-2.385c35.157,0.063,70.314,0.063,105.471-0.001
			c1.931-0.003,2.333,0.571,2.313,2.387c-0.095,8.413-0.06,16.828-0.038,25.242c0.047,17.702,13.958,33.183,30.872,34.381
			c18.937,1.341,34.945-11.113,37.486-29.41c0.802-5.776,0.266-11.65,0.311-17.479c0.033-4.249,0.098-8.501-0.036-12.745
			c-0.06-1.883,0.518-2.383,2.39-2.372c13.162,0.081,26.325,0.043,39.488,0.043c21.827,0,43.655,0.025,65.481-0.041
			c2.045-0.006,2.867,0.289,2.859,2.66c-0.092,30.658-0.076,61.316-0.021,91.975c0.003,1.848-0.539,2.464-2.366,2.93
			c-16.257,4.139-26.573,14.44-30.849,30.619c-0.583,2.205-1.356,2.685-3.429,2.682C321.209,393.804,285.22,393.818,249.229,393.818
			z"/>
		<path fill-rule="evenodd" clip-rule="evenodd" fill="#FCB317" d="M107.967,153.055c1.233,0,2.14,0,3.047,0
			c92.244,0,184.488,0,276.732,0c3.058,0,3.052-0.001,1.976,2.863c-4.552,12.118-9.139,24.224-13.607,36.372
			c-0.626,1.703-1.453,2.199-3.223,2.193c-21.165-0.063-42.33-0.047-63.495-0.027c-1.278,0.001-2.35-0.167-3.423-1.053
			c-8.44-6.972-17.563-7.71-27.159-2.622c-1.424,0.755-2.442,0.79-3.865,0.024c-4.784-2.573-9.831-4.235-15.32-2.721
			c-1.695,0.467-2.006-0.652-2.616-1.555c-3.939-5.836-8.879-10.433-15.937-12.036c-10.182-2.313-18.409,1.263-24.674,9.237
			c-2.253,2.868-3.861,4.643-8.189,4.003c-5.904-0.874-11.415,1.717-16.14,5.438c-1.199,0.944-2.373,1.298-3.866,1.295
			c-20.749-0.037-41.497-0.051-62.246,0.021c-1.875,0.006-2.759-0.521-3.417-2.313C117.804,179.251,112.946,166.371,107.967,153.055
			z"/>
		<path fill-rule="evenodd" clip-rule="evenodd" fill="#FCB317" d="M358.883,249.445c-1.314,0-2.104,0-2.895,0
			c-71.156,0-142.312,0-213.467,0c-3.488,0-3.654-0.231-2.667-3.711c2.21-7.794,9.924-11.872,17.643-9.327
			c5.242,1.729,8.368,0.154,10.192-5.134c2.503-7.255,9.544-10.904,16.969-8.793c6.156,1.75,10.025-1.233,9.8-7.555
			c-0.325-9.126,8.805-15.858,17.686-12.989c2.187,0.706,4.3,1.256,6.524,0.2c2.014-0.957,3.173-2.555,3.871-4.629
			c2.166-6.44,6.853-10.006,13.05-10.008c6.229-0.002,10.82,3.479,13.108,9.94c1.634,4.612,4.934,6.274,9.61,4.692
			c4.99-1.688,9.469-0.884,13.603,2.352c3.719,2.911,6.274,2.836,10.099-0.134c7.919-6.15,18.625-2.854,21.774,6.705
			c1.82,5.524,4.816,7.056,10.295,5.263c14.971-4.9,29.965,4.969,31.314,20.751c0.319,3.733,2.021,5.96,5.457,7.186
			C353.723,245.279,356.326,246.804,358.883,249.445z"/>
		<path fill-rule="evenodd" clip-rule="evenodd" fill="#FCB317" d="M337.535,139.444c-17.416,0-34.833-0.025-52.249,0.042
			c-1.626,0.006-2.306-0.485-2.746-2.019c-4.455-15.5-17.6-25.548-33.277-25.518c-15.388,0.029-28.708,10.146-33.006,25.252
			c-0.52,1.827-1.242,2.282-3.027,2.279c-34.667-0.05-69.333-0.058-104,0.009c-2.347,0.004-2.545-0.726-2-2.722
			c3.935-14.407,13.29-24.255,26.063-31.282c0.852-0.469,1.734-0.493,2.654-0.493c75.583,0.004,151.165,0.003,226.748,0.003
			c0.912,0,1.795-0.01,2.66,0.457c13.007,7.034,22.415,17.01,26.242,31.676c0.511,1.958,0.184,2.363-1.813,2.355
			C372.369,139.414,354.952,139.444,337.535,139.444z"/>
		<path fill-rule="evenodd" clip-rule="evenodd" fill="#FCB317" d="M249.54,263.036c6.166,0,12.332,0.042,18.496-0.03
			c1.478-0.018,2.026,0.32,2.012,1.922c-0.082,8.997,0.072,17.998-0.088,26.993c-0.184,10.291-9.091,19.152-19.377,19.549
			c-11.115,0.428-20.658-7.286-21.59-17.901c-0.846-9.633-0.14-19.317-0.336-28.976c-0.035-1.717,1.025-1.563,2.138-1.562
			C237.043,263.041,243.292,263.035,249.54,263.036z"/>
		<path fill-rule="evenodd" clip-rule="evenodd" fill="#FCB317" d="M176.272,208.059c-5.184,1.566-9.596,4.197-13.277,8.091
			c-1.55,1.639-2.963,3.386-4.101,5.326c-0.556,0.948-1.185,1.162-2.235,1.01c-14.021-2.029-26.843,6.639-30.17,20.405
			c-0.408,1.689-0.651,3.432-0.8,5.164c-0.093,1.083-0.505,1.412-1.54,1.405c-4.914-0.034-9.829-0.043-14.743,0.003
			c-1.272,0.012-1.329-0.42-0.935-1.464c4.857-12.883,9.693-25.774,14.495-38.678c0.403-1.083,1.076-1.276,2.091-1.275
			C142.129,208.064,159.201,208.059,176.272,208.059z"/>
		<path fill-rule="evenodd" clip-rule="evenodd" fill="#FCB317" d="M342.811,208.059c3.943,0,7.645,0,11.346,0
			c6.407,0,12.815,0.042,19.223-0.035c1.384-0.017,2.086,0.399,2.569,1.702c4.669,12.588,9.375,25.162,14.116,37.723
			c0.526,1.394,0.665,2.092-1.25,2.032c-3.825-0.119-7.656-0.072-11.483-0.012c-1.123,0.018-1.809-0.314-2.397-1.313
			c-3.688-6.254-8.904-10.907-15.301-14.26c-1.028-0.539-1.649-1.181-1.904-2.367c-1.995-9.306-6.832-16.826-14.376-22.619
			C343.188,208.784,343.11,208.54,342.811,208.059z"/>
		<path fill-rule="evenodd" clip-rule="evenodd" fill="#FCB317" d="M268.673,139.444c-3.208,0-6.351,0-9.493,0
			c-9.154,0-18.309-0.017-27.464,0.02c-1.409,0.005-1.963-0.11-1.263-1.757c3.078-7.236,11.027-12.29,19.353-12.139
			c8.236,0.149,16.129,5.584,18.789,12.951C268.673,138.733,268.639,138.988,268.673,139.444z"/>
		<path fill-rule="evenodd" clip-rule="evenodd" fill="#FCB318" d="M383.99,393.821c-2.663,0-5.328-0.047-7.991,0.02
			c-1.304,0.032-1.896-0.276-1.403-1.685c3.023-8.637,8.824-14.49,17.47-17.521c1.302-0.457,1.776-0.088,1.762,1.332
			c-0.058,5.327-0.059,10.655,0.002,15.982c0.016,1.39-0.411,1.94-1.848,1.896C389.32,393.762,386.654,393.821,383.99,393.821z"/>
		<path fill-rule="evenodd" clip-rule="evenodd" fill="#FCB317" d="M104.997,383.796c0-2.578,0.066-5.158-0.026-7.733
			c-0.052-1.455,0.28-1.953,1.789-1.412c8.608,3.086,14.436,8.871,17.375,17.57c0.418,1.236,0.252,1.624-1.078,1.614
			c-5.488-0.039-10.978-0.054-16.466,0.006c-1.402,0.015-1.642-0.61-1.614-1.812C105.04,389.286,104.997,386.54,104.997,383.796z"/>
		<path fill-rule="evenodd" clip-rule="evenodd" fill="#FFFFFF" d="M256.153,284.814c0,2.076,0.099,4.159-0.022,6.229
			c-0.211,3.627-3.123,6.379-6.658,6.446c-3.55,0.069-6.788-2.807-6.924-6.471c-0.157-4.231-0.008-8.474-0.061-12.71
			c-0.015-1.15,0.493-1.381,1.494-1.371c3.572,0.035,7.146,0.056,10.717-0.01c1.276-0.023,1.53,0.555,1.502,1.655
			c-0.053,2.076-0.015,4.154-0.015,6.231C256.175,284.814,256.164,284.814,256.153,284.814z"/>
	</g>
</g>
</svg>
