<?xml version="1.0" encoding="utf-8"?>
<!-- Generator: Adobe Illustrator 16.0.0, SVG Export Plug-In . SVG Version: 6.00 Build 0)  -->
<!DOCTYPE svg PUBLIC "-//W3C//DTD SVG 1.1//EN" "http://www.w3.org/Graphics/SVG/1.1/DTD/svg11.dtd">
<svg version="1.1" id="Layer_1" xmlns="http://www.w3.org/2000/svg" xmlns:xlink="http://www.w3.org/1999/xlink" x="0px" y="0px"
	 width="500px" height="500px" viewBox="0 0 500 500" enable-background="new 0 0 500 500" xml:space="preserve">
<g>
	<g>
		<path fill-rule="evenodd" clip-rule="evenodd" fill="#C32F46" d="M500.499,500.499c-165.916,0-331.833-0.004-497.75,0.046
			c-1.875,0.001-2.297-0.421-2.297-2.296c0.05-165.166,0.05-330.333,0-495.5c0-1.874,0.421-2.297,2.296-2.297
			C168.666,0.503,334.583,0.5,500.499,0.5c0.466,0.864,0.236,1.8,0.236,2.699c0.012,164.868,0.012,329.734,0,494.603
			C500.735,498.699,500.965,499.635,500.499,500.499z"/>
		<path fill-rule="evenodd" clip-rule="evenodd" fill="#FFFFFF" d="M500.499,500.499c0-166.666,0-333.333,0-500
			c0.153,0.109,0.521-0.253,0.505,0.25c-0.021,0.666-0.005,1.333-0.005,2c0,165.167,0.001,330.333-0.03,495.5
			C500.969,498.98,501.545,499.944,500.499,500.499z"/>
		<path fill-rule="evenodd" clip-rule="evenodd" fill="#FFFFFF" d="M204.494,308.248c4.495,4.313,8.95,8.669,13.508,12.914
			c1.286,1.197,1.247,1.921-0.008,3.108c-4.106,3.884-8.103,7.884-12.235,11.931c1.077,0.914,2.021,0.575,2.858,0.575
			c32.749,0.021,65.498,0.025,98.247-0.001c1.803-0.001,3.319-0.189,3.629,2.372c0.214,1.772,1.915,2.412,3.662,2.306
			c1.773-0.108,3.173-1.042,3.301-2.815c0.133-1.854,1.113-1.943,2.466-1.844c2.131,0.156,4.87-0.907,6.23,0.472
			c1.249,1.265,0.324,3.965,0.351,6.03c0.056,4.332-0.001,8.666,0.027,12.999c0.02,3.042,1.223,4.27,4.196,4.301
			c2.916,0.031,5.833,0.028,8.75,0.002c3.024-0.028,4.164-1.177,4.29-4.242c0.003-0.083,0.001-0.167,0.003-0.25
			c0.136-4.846,0.135-4.792,4.989-4.702c1.38,0.025,1.912,0.367,1.856,1.819c-0.315,8.151,1.826,7.505,7.717,7.406
			c1.416-0.024,2.833-0.001,4.249-0.005c4.504-0.014,5.447-0.938,5.449-5.352c0.002-5.5,0.088-11.002-0.05-16.498
			c-0.046-1.807,0.677-2.008,2.159-2.009c1.527-0.001,2.393,0.1,2.385,2.081c-0.077,18.832-0.078,37.665,0.009,56.498
			c0.01,2.053-0.95,2.026-2.422,2.023c-17.583-0.027-35.166-0.018-52.748-0.018c-67.582,0-135.163-0.015-202.744,0.059
			c-2.5,0.002-3.231-0.526-3.09-3.116c0.262-4.819,0.187-9.666,0.024-14.494c-0.069-2.062,0.647-2.455,2.536-2.444
			c12.75,0.075,25.5,0.016,38.249,0.07c1.546,0.007,2.652-0.457,3.727-1.544c17.1-17.31,34.222-34.597,51.375-51.854
			c0.951-0.958,1.104-1.464,0.069-2.521c-16.672-17.031-33.8-33.604-50.677-50.429c-1.236-1.233-2.684-1.468-4.32-1.465
			c-12.75,0.024-25.5-0.048-38.249,0.071c-2.258,0.021-2.841-0.614-2.703-2.781c0.205-3.237-0.153-6.519,0.156-9.74
			c0.851-8.856,6.077-14.521,13.89-18.063c6.709-3.043,13.805-4.142,21.148-4.137c49.499,0.034,98.997,0.011,148.496,0.018
			c13.833,0.002,27.666-0.043,41.498,0.1c7.862,0.081,15.593,1.047,22.878,4.405c8.691,4.005,13.084,10.448,12.922,20.246
			c-0.248,15.079-0.106,30.165-0.021,45.247c0.012,2.008-0.571,2.483-2.518,2.475c-16.666-0.076-33.332-0.053-49.998-0.027
			c-1.365,0.002-2.322-0.058-2.61-1.807c-0.276-1.682-1.802-2.38-3.387-2.426c-1.595-0.046-3.168,0.622-3.485,2.266
			c-0.376,1.951-1.491,1.971-3.011,1.97c-33.249-0.025-66.498-0.02-99.747-0.02c-0.91,0-1.82,0-2.73,0
			C204.857,307.688,204.675,307.968,204.494,308.248z"/>
		<path fill-rule="evenodd" clip-rule="evenodd" fill="#FFFFFF" d="M329.156,186.593c0,12.832,0.003,25.664-0.001,38.497
			c-0.001,3.326-0.07,3.396-3.325,3.396c-11.082,0.004-22.165,0.004-33.247,0c-3.333-0.001-3.467-0.124-3.384-3.326
			c0.594-22.745,0.439-45.496,0.259-68.24c-0.144-18.014-8.438-31.808-22.68-42.665c-11.059-8.432-23.147-10.625-36.497-8.643
			c-23.538,3.493-40.852,20.056-45.037,43.286c-0.547,3.037-0.668,6.12-0.661,9.208c0.046,21.915,0.081,43.829,0.115,65.743
			c0.006,3.719-0.005,3.72-3.736,3.721c-11.333,0.001-22.665-0.021-33.997,0.027c-1.498,0.006-2.207-0.221-2.196-1.995
			c0.135-23.914-0.652-47.868,0.474-71.732c1.689-35.815,19.134-62.634,51.117-78.664c51.445-25.783,112.005,1.237,129.153,56.081
			c3.183,10.179,4.083,20.492,3.771,31.06c-0.238,8.075-0.048,16.163-0.048,24.246C329.21,186.593,329.184,186.593,329.156,186.593z
			"/>
		<path fill-rule="evenodd" clip-rule="evenodd" fill="#FFFFFF" d="M242.21,406.148c42.329,0,84.658,0,126.987,0
			c3.956,0,4.097,0.14,4.104,4.036c0.027,15.513-9.977,25.296-26.018,25.302c-64.41,0.022-128.82,0.012-193.23,0.013
			c-6.166,0-12.333,0.084-18.498-0.024c-7.759-0.137-14.42-2.889-19.832-8.588c-3.395-3.574-5.044-7.763-5.056-12.647
			c-0.001-0.666,0.021-1.333,0.021-1.999c0.002-6.821-0.436-6.088,6.283-6.089C158.719,406.146,200.464,406.148,242.21,406.148z"/>
		<path fill-rule="evenodd" clip-rule="evenodd" fill="#FFFFFF" d="M112.599,322.998c0-10.583-0.008-21.166,0.003-31.749
			c0.008-7.805,4.405-11.558,12.134-10.387c13.94,2.113,23.248,10.829,26.064,24.506c0.366,1.778,0.541,3.631,0.527,5.448
			c-0.068,9.243,0.28,18.487-0.238,27.732c-0.81,14.459-15.42,27.542-29.972,26.704c-4.912-0.282-8.448-3.898-8.485-9.006
			c-0.079-11.082-0.024-22.166-0.024-33.249C112.605,322.998,112.602,322.998,112.599,322.998z"/>
	</g>
</g>
</svg>
