<?xml version="1.0" encoding="utf-8"?>
<!-- Generator: Adobe Illustrator 16.0.0, SVG Export Plug-In . SVG Version: 6.00 Build 0)  -->
<!DOCTYPE svg PUBLIC "-//W3C//DTD SVG 1.1//EN" "http://www.w3.org/Graphics/SVG/1.1/DTD/svg11.dtd">
<svg version="1.1" id="Layer_1" xmlns="http://www.w3.org/2000/svg" xmlns:xlink="http://www.w3.org/1999/xlink" x="0px" y="0px"
	 width="500px" height="500px" viewBox="0 0 500 500" enable-background="new 0 0 500 500" xml:space="preserve">
<g>
	<g>
		<path fill-rule="evenodd" clip-rule="evenodd" fill="#E53B35" d="M500.499,500.499c-165.916,0-331.833-0.004-497.75,0.046
			c-1.875,0.001-2.297-0.422-2.297-2.296c0.05-165.166,0.05-330.333,0-495.5c0-1.875,0.422-2.297,2.297-2.297
			C168.666,0.503,334.583,0.5,500.499,0.5c0.464,0.865,0.235,1.8,0.235,2.699c0.012,164.868,0.012,329.734,0,494.603
			C500.734,498.699,500.964,499.635,500.499,500.499z"/>
		<path fill-rule="evenodd" clip-rule="evenodd" fill="#FFFFFF" d="M500.499,500.499c0-166.666,0-333.333,0-500
			c0.153,0.109,0.521-0.253,0.505,0.25c-0.021,0.666-0.005,1.333-0.005,2c0,165.167,0.001,330.333-0.03,495.5
			C500.969,498.98,501.545,499.944,500.499,500.499z"/>
		<path fill-rule="evenodd" clip-rule="evenodd" fill="#FFFFFF" d="M381.947,299.496c-4.332,0-8.67-0.132-12.993,0.059
			c-2.001,0.089-2.797-0.688-3.258-2.443c-0.716-2.729-1.637-5.406-2.342-8.139c-0.443-1.719-1.294-2.422-3.153-2.406
			c-9.829,0.08-19.66,0.075-29.489,0.004c-1.855-0.013-2.677,0.685-3.096,2.448c-0.691,2.909-1.645,5.754-2.418,8.646
			c-0.348,1.301-0.947,1.879-2.42,1.867c-8.829-0.071-17.66-0.06-26.49-0.014c-1.579,0.009-1.821-0.433-1.291-1.891
			c7.362-20.23,14.694-40.472,21.998-60.723c3.975-11.021,7.895-22.063,11.798-33.11c0.548-1.552,1.196-2.377,3.126-2.351
			c9.411,0.13,18.826,0.103,28.239,0.017c1.609-0.015,2.332,0.505,2.858,1.983c5.607,15.729,11.257,31.444,16.931,47.149
			c5.647,15.629,11.31,31.252,17.043,46.85c0.682,1.853,0.113,2.104-1.548,2.078C390.945,299.45,386.445,299.496,381.947,299.496z"
			/>
		<path fill-rule="evenodd" clip-rule="evenodd" fill="#FFFFFF" d="M234.056,250.318c0-15.407,0.041-30.814-0.048-46.221
			c-0.012-2.073,0.522-2.648,2.614-2.642c23.569,0.074,47.137,0.045,70.707,0.048c2.724,0,2.743,0.019,1.768,2.648
			c-2.081,5.609-4.224,11.196-6.256,16.823c-0.592,1.64-1.628,1.995-3.239,1.986c-10.493-0.059-20.987,0.03-31.479-0.078
			c-2.214-0.022-2.865,0.616-2.782,2.826c0.173,4.574,0.198,9.166-0.005,13.737c-0.111,2.512,0.809,3.068,3.132,3.034
			c8.16-0.121,16.324,0.015,24.484-0.092c2.277-0.03,2.556,0.765,1.799,2.629c-2.346,5.775-4.723,11.541-6.922,17.372
			c-0.628,1.663-1.568,2.088-3.174,2.071c-5.579-0.059-11.161,0.051-16.739-0.063c-2.011-0.041-2.573,0.673-2.559,2.611
			c0.078,9.993-0.007,19.987,0.085,29.98c0.017,1.902-0.397,2.582-2.448,2.556c-8.826-0.115-17.656-0.106-26.482-0.005
			c-1.965,0.022-2.512-0.516-2.501-2.502C234.093,281.466,234.056,265.892,234.056,250.318z"/>
		<path fill-rule="evenodd" clip-rule="evenodd" fill="#FFFDFD" d="M97.001,250.488c0-15.495,0.023-30.989-0.032-46.483
			c-0.006-1.766,0.185-2.569,2.339-2.561c23.741,0.092,47.483,0.07,71.225,0.034c1.814-0.003,2.511,0.053,1.613,2.238
			c-2.302,5.603-4.34,11.319-6.332,17.043c-0.611,1.756-1.577,2.216-3.318,2.205c-10.413-0.064-20.826,0.019-31.238-0.072
			c-2.114-0.018-2.947,0.457-2.856,2.764c0.186,4.741,0.137,9.496,0.016,14.242c-0.051,1.987,0.611,2.595,2.583,2.573
			c8.163-0.092,16.327-0.044,24.491-0.038c2.937,0.002,3.043,0.088,2.042,2.697c-2.234,5.819-4.608,11.586-6.784,17.427
			c-0.589,1.581-1.509,1.92-3.006,1.905c-5.581-0.056-11.164,0.041-16.743-0.06c-1.981-0.036-2.59,0.667-2.576,2.613
			c0.077,9.996-0.011,19.993,0.087,29.988c0.019,1.95-0.486,2.561-2.485,2.538c-8.913-0.103-17.828-0.103-26.74,0.002
			c-1.865,0.022-2.341-0.443-2.332-2.323C97.037,281.644,97.001,266.065,97.001,250.488z"/>
		<path fill-rule="evenodd" clip-rule="evenodd" fill="#FFFFFF" d="M213.134,250.48c0,15.489-0.026,30.979,0.034,46.47
			c0.007,1.82-0.269,2.63-2.393,2.6c-8.826-0.126-17.656-0.118-26.482-0.004c-1.982,0.026-2.282-0.663-2.279-2.433
			c0.051-31.063,0.058-62.126-0.011-93.189c-0.004-2.013,0.562-2.489,2.502-2.466c8.743,0.103,17.489,0.113,26.232-0.005
			c2.062-0.028,2.444,0.676,2.436,2.559C213.104,219.5,213.134,234.99,213.134,250.48z"/>
		<path fill-rule="evenodd" clip-rule="evenodd" fill="#FEF4F2" d="M392.891,201.493c7.098,0,11.283,4.49,11.711,11.48
			c0.4,6.535-6.549,11.785-11.727,11.619c-6.467-0.207-11.672-5.247-11.694-11.769C381.158,206.163,385.985,201.493,392.891,201.493
			z"/>
		<path fill-rule="evenodd" clip-rule="evenodd" fill="#E63B35" d="M345.785,228.633c1.704,5.609,3.42,11.213,5.108,16.827
			c1.963,6.523,3.854,13.068,5.881,19.572c0.511,1.641,0.304,2.292-1.543,2.274c-6.328-0.06-12.656-0.028-18.984-0.036
			c-1.163-0.002-2.281-0.027-1.776-1.766c3.563-12.282,7.111-24.568,10.664-36.853C345.352,228.645,345.568,228.639,345.785,228.633
			z"/>
		<path fill-rule="evenodd" clip-rule="evenodd" fill="#E85147" d="M398.052,219.49c-2.631,3.447-8.299,3.211-11.455-0.557
			c-2.402-2.867-2.771-6.225-1.543-9.622c1.157-3.205,3.648-5.034,7.059-5.563c3.556-0.552,7.495,2.163,8.9,6.171
			c1.278,3.646-0.061,7.917-3.016,9.626c-0.99-0.991-2.034-1.897-2.628-3.256c-0.68-1.556-0.559-2.798,0.577-4.109
			c1.951-2.254,1.144-4.342-1.807-4.938c-3.49-0.705-5.066,0.58-5.056,4.183c0.005,1.886-0.138,3.787,0.149,5.622
			c0.387,0.046,0.517-0.036,0.566-0.229c0.318-1.229,0.022-2.901,1.745-3.234c1.729-0.334,2.496,1.051,3.134,2.323
			C395.455,217.454,396.76,218.455,398.052,219.49z"/>
		<path fill-rule="evenodd" clip-rule="evenodd" fill="#FEF6F5" d="M398.052,219.49c-2.892,0.291-3.656-2.054-4.808-3.902
			c-0.39-0.625-0.63-1.584-1.512-1.41c-1.002,0.198-0.564,1.213-0.639,1.897c-0.054,0.493-0.006,0.996-0.009,1.494
			c-0.006,0.886-0.111,1.732-1.273,1.734c-1.12,0.001-1.646-0.619-1.644-1.732c0.01-3.24,0.004-6.48,0.011-9.721
			c0.002-0.861,0.385-1.481,1.29-1.523c2.071-0.095,4.158-0.312,6.21,0.125c1.318,0.281,2.24,1.155,2.512,2.477
			c0.335,1.631,0.177,3.294-1.454,4.15c-1.51,0.793-1.287,1.538-0.484,2.674c0.805,1.14,1.691,2.286,1.745,3.791L398.052,219.49z"/>
		<path fill-rule="evenodd" clip-rule="evenodd" fill="#E74C45" d="M392.799,208.381c1.26,0.029,2.47-0.006,2.518,1.509
			c0.046,1.424-0.942,1.708-2.166,1.7c-1.155-0.009-2.146,0.007-2.097-1.622C391.095,208.601,391.8,208.274,392.799,208.381z"/>
	</g>
</g>
</svg>
