<?xml version="1.0" encoding="utf-8"?>
<!-- Generator: Adobe Illustrator 16.0.0, SVG Export Plug-In . SVG Version: 6.00 Build 0)  -->
<!DOCTYPE svg PUBLIC "-//W3C//DTD SVG 1.1//EN" "http://www.w3.org/Graphics/SVG/1.1/DTD/svg11.dtd">
<svg version="1.1" id="Layer_1" xmlns="http://www.w3.org/2000/svg" xmlns:xlink="http://www.w3.org/1999/xlink" x="0px" y="0px"
	 width="500px" height="500px" viewBox="0 0 500 500" enable-background="new 0 0 500 500" xml:space="preserve">
<g>
	<g>
		<path fill-rule="evenodd" clip-rule="evenodd" fill="#2CABE1" d="M500.499,500.499c-165.916,0-331.833-0.004-497.75,0.046
			c-1.875,0.001-2.302-0.421-2.298-2.296c0.068-30.75,0.048-61.5,0.048-92.25c0.779-0.843,1.749-0.727,2.772-0.648
			c5.351,0.409,10.564-3.14,12.059-8.154c1.47-4.933-0.75-10.224-5.446-12.97c-1.548-0.905-3.226-1.204-5.012-1.227
			c-1.463-0.019-3.004,0.411-4.373-0.501c0-126.583,0.005-253.166-0.047-379.75c0-1.875,0.422-2.297,2.297-2.297
			C168.666,0.503,334.583,0.5,500.499,0.5c0.469,0.864,0.238,1.799,0.238,2.698c0.012,164.868,0.012,329.736,0,494.604
			C500.737,498.699,500.968,499.635,500.499,500.499z"/>
		<path fill-rule="evenodd" clip-rule="evenodd" fill="#E6E6E5" d="M0.5,382.499c5.223-1.73,10.457-0.178,13.837,4.104
			c2.979,3.773,3.271,9.538,0.701,13.831c-2.611,4.362-7.653,6.616-12.815,5.742c-0.568-0.097-1.148-0.119-1.723-0.177
			C0.5,398.166,0.5,390.333,0.5,382.499z"/>
		<path fill-rule="evenodd" clip-rule="evenodd" fill="#FFFFFF" d="M500.499,500.499c0-166.666,0-333.333,0-500
			c0.153,0.109,0.521-0.253,0.505,0.25c-0.021,0.666-0.005,1.333-0.005,2c0,165.167,0.001,330.333-0.03,495.5
			C500.969,498.98,501.545,499.944,500.499,500.499z"/>
		<path fill-rule="evenodd" clip-rule="evenodd" fill="#FFFFFF" d="M165.436,372.942c-0.708-1.25-0.487-2.093-0.488-2.895
			c-0.014-24.08,0.019-48.16-0.061-72.24c-0.008-2.262,0.674-3.525,2.637-4.733c53.204-32.735,106.36-65.546,159.526-98.342
			c28.567-17.623,57.139-35.24,85.704-52.865c0.915-0.564,1.79-1.192,2.522-2.146c-1.254,0.601-2.52,1.178-3.761,1.805
			c-38.951,19.677-77.895,39.369-116.85,59.037c-33.529,16.928-67.074,33.823-100.606,50.744
			c-17.845,9.004-35.69,18.007-53.495,27.088c-1.766,0.9-2.808,0.827-4.266-0.64c-19.794-19.916-39.665-39.756-59.508-59.624
			c-0.578-0.579-1.553-1.331-1.474-1.874c0.151-1.028,1.476-0.832,2.288-1.036c27.683-6.965,55.38-13.87,83.068-20.815
			c37.942-9.518,75.874-19.075,113.816-28.592c42.461-10.65,84.929-21.272,127.392-31.914c11.948-2.994,23.889-6.013,35.832-9.025
			c0.7-0.176,1.389-0.499,2.418-0.012c-0.831,1.075-1.555,2.054-2.321,2.998c-27.951,34.388-55.921,68.761-83.858,103.16
			c-34.608,42.611-69.189,85.244-103.786,127.865c-4.357,5.368-8.796,10.672-13.066,16.108c-1.262,1.608-1.98,1.613-3.4,0.18
			c-11.255-11.369-22.624-22.625-33.854-34.019c-1.606-1.63-2.404-1.474-3.887,0.074c-9.452,9.869-19.005,19.64-28.518,29.45
			C166.806,371.332,166.229,372.043,165.436,372.942z"/>
		<path fill-rule="evenodd" clip-rule="evenodd" fill="#E6E6E5" d="M131.242,362.365c7.002,0.018,12.3,5.337,12.271,12.323
			c-0.028,6.708-5.514,12.191-12.23,12.224c-6.982,0.034-12.402-5.479-12.349-12.562
			C118.984,367.515,124.289,362.349,131.242,362.365z"/>
		<path fill-rule="evenodd" clip-rule="evenodd" fill="#E6E6E5" d="M82.654,388.793c0.003,6.979-5.18,12.243-12.079,12.269
			c-6.943,0.025-12.455-5.403-12.464-12.278c-0.01-6.732,5.493-12.274,12.219-12.308C77.336,376.442,82.651,381.754,82.654,388.793z
			"/>
		<path fill-rule="evenodd" clip-rule="evenodd" fill="#E6E6E5" d="M101.108,395.063c-6.956-0.015-12.214-5.383-12.169-12.421
			c0.044-6.787,5.452-12.158,12.248-12.164c6.88-0.007,12.354,5.474,12.34,12.354C113.512,389.723,108.074,395.079,101.108,395.063z
			"/>
		<path fill-rule="evenodd" clip-rule="evenodd" fill="#E6E6E5" d="M37.58,406.403c-6.757,0.048-12.438-5.597-12.448-12.366
			c-0.01-6.743,5.425-12.149,12.239-12.177c7.039-0.027,12.343,5.191,12.424,12.224C49.871,400.684,44.247,406.355,37.58,406.403z"
			/>
	</g>
</g>
</svg>
