<?xml version="1.0" encoding="utf-8"?>
<!-- Generator: Adobe Illustrator 16.0.0, SVG Export Plug-In . SVG Version: 6.00 Build 0)  -->
<!DOCTYPE svg PUBLIC "-//W3C//DTD SVG 1.1//EN" "http://www.w3.org/Graphics/SVG/1.1/DTD/svg11.dtd">
<svg version="1.1" id="Layer_1" xmlns="http://www.w3.org/2000/svg" xmlns:xlink="http://www.w3.org/1999/xlink" x="0px" y="0px"
	 width="500px" height="500px" viewBox="0 0 500 500" enable-background="new 0 0 500 500" xml:space="preserve">
<g>
	<g>
		<path fill-rule="evenodd" clip-rule="evenodd" fill="#863C96" d="M500.499,500.499c-165.916,0-331.833-0.004-497.75,0.046
			c-1.875,0.001-2.297-0.422-2.297-2.296c0.05-165.166,0.05-330.333,0-495.5c0-1.875,0.422-2.297,2.297-2.297
			C168.666,0.503,334.583,0.5,500.499,0.5c0.466,0.864,0.237,1.8,0.237,2.698c0.012,164.868,0.012,329.735,0,494.603
			C500.736,498.699,500.965,499.635,500.499,500.499z"/>
		<path fill-rule="evenodd" clip-rule="evenodd" fill="#FFFFFF" d="M500.499,500.499c0-166.666,0-333.333,0-500
			c0.153,0.109,0.521-0.253,0.505,0.25c-0.021,0.666-0.005,1.333-0.005,2c0,165.167,0.001,330.333-0.03,495.5
			C500.969,498.98,501.545,499.944,500.499,500.499z"/>
		<path fill-rule="evenodd" clip-rule="evenodd" fill="#FFFFFF" d="M250.644,382c-46.75,0-93.5,0.017-140.25-0.018
			c-7.64-0.006-13.383-3.777-18.193-9.447c-4.763-5.613-6.254-12.091-6.244-19.287c0.078-54.499,0.037-108.999,0.047-163.498
			c0.002-11.018,5.41-18.9,14.697-24.185c3.404-1.938,7.243-2.902,11.365-2.888c30,0.098,60-0.057,89.998,0.191
			c3.771,0.031,5.739-1.615,7.737-4.046c4.916-5.979,9.775-12.005,14.73-17.951c4.221-5.066,7.977-10.551,12.854-15.032
			c4.624-4.248,10.008-6.86,16.486-6.852c25.333,0.03,50.666-0.015,75.999,0.031c6.214,0.012,11.585,2.375,16.041,6.652
			c6.026,5.785,10.948,12.536,16.28,18.928c4.123,4.942,8.618,9.611,12.358,14.825c2.232,3.112,4.799,3.364,8.052,3.362
			c4.771-0.003,9.615-0.711,14.275,1.101c10.1,3.928,16.327,10.914,18.431,21.775c0.707,3.648,0.646,7.189,0.649,10.77
			c0.055,52.5,0.039,104.999,0.035,157.499c0,6.155-1.833,11.796-5.257,16.842c-3.95,5.823-9.466,9.523-16.365,11.049
			c-0.959,0.212-1.984,0.173-2.979,0.173C344.477,382.001,297.56,382,250.644,382z"/>
		<path fill-rule="evenodd" clip-rule="evenodd" fill="#863C96" d="M329.436,278.106c0.155,45.098-36.831,82.6-83.221,81.987
			c-43.032-0.567-82.853-36.094-80.614-86.311c1.875-42.064,37.012-77.949,82.226-77.71
			C294.115,196.318,329.669,234.124,329.436,278.106z"/>
		<path fill-rule="evenodd" clip-rule="evenodd" fill="#863C96" d="M293.162,125.396c3.583,0,7.187,0.246,10.745-0.05
			c8.329-0.692,13.933,5.223,16.027,12.03c2.225,7.23,1.264,14.121-3.18,20.395c-2.824,3.986-6.679,6.07-11.551,6.106
			c-7.416,0.055-14.84-0.201-22.246,0.072c-8.4,0.31-13.231-4.016-16.083-10.756c-3.503-8.282-1.586-18.379,5.025-24.534
			c2.264-2.107,4.962-3.189,8.013-3.244C284.328,125.338,288.745,125.396,293.162,125.396z"/>
		<path fill-rule="evenodd" clip-rule="evenodd" fill="#FFFFFF" d="M300.269,279.165c0.614,28.974-23.861,53.255-53.354,52.889
			c-29.41-0.365-52.814-23.535-52.746-53.594c0.063-27.328,22.465-54.796,57.552-52.46
			C276.608,227.657,300.805,248.916,300.269,279.165z"/>
	</g>
</g>
</svg>
