<?xml version="1.0" encoding="utf-8"?>
<!-- Generator: Adobe Illustrator 16.0.0, SVG Export Plug-In . SVG Version: 6.00 Build 0)  -->
<!DOCTYPE svg PUBLIC "-//W3C//DTD SVG 1.1//EN" "http://www.w3.org/Graphics/SVG/1.1/DTD/svg11.dtd">
<svg version="1.1" id="Layer_1" xmlns="http://www.w3.org/2000/svg" xmlns:xlink="http://www.w3.org/1999/xlink" x="0px" y="0px"
	 width="500px" height="500px" viewBox="0 0 500 500" enable-background="new 0 0 500 500" xml:space="preserve">
<g>
	<g>
		<path fill-rule="evenodd" clip-rule="evenodd" fill="#212121" d="M500.499,500.499c-165.889,0-331.778-0.005-497.667,0.061
			c-2.116,0.001-2.383-0.537-2.382-2.478c0.053-165.055,0.053-330.11,0-495.167c-0.001-1.94,0.267-2.478,2.382-2.477
			C168.722,0.505,334.61,0.5,500.499,0.5c0.461,0.865,0.232,1.8,0.232,2.7c0.012,164.867,0.012,329.733,0.001,494.6
			C500.731,498.698,500.96,499.633,500.499,500.499z"/>
		<path fill-rule="evenodd" clip-rule="evenodd" fill="#FFFFFF" d="M500.499,500.499c0-166.666,0-333.333,0-500
			c0.153,0.109,0.521-0.253,0.505,0.25c-0.021,0.666-0.005,1.333-0.005,2c0,165.167,0.001,330.333-0.03,495.5
			C500.969,498.98,501.545,499.944,500.499,500.499z"/>
		<path fill-rule="evenodd" clip-rule="evenodd" fill="#FFFFFF" d="M123.8,213.727c0-0.749,0.001-1.498,0-2.247
			c-0.061-39.411-0.124-78.823-0.182-118.234c-0.007-4.875,0.429-5.344,5.06-6.351c12.056-2.62,24.2-4.76,36.364-6.798
			c1.703-0.285,2.82,0.018,2.442,2.13c-2.081,11.632-1.465,23.357-1.374,35.086c0.18,23.33,0.05,46.663,0.052,69.995
			c0.002,43.413-0.07,86.827,0.044,130.24c0.057,22.004,12.744,40.084,33.463,48.354c9.621,3.84,19.63,5.976,29.9,7.146
			c10.537,1.201,21.106,1.466,31.651,0.771c19.433-1.28,37.985-5.733,53.731-17.936c12.808-9.925,19.81-23.141,19.853-39.526
			c0.119-45.911,0.04-91.823,0.152-137.734c0.018-7.18-3.9-12.192-8.419-16.896c-8.378-8.724-18.982-13.222-30.688-15.332
			c-11.897-2.144-23.86-1.297-35.819-0.556c-3.664,0.227-7.261,0.708-10.791,1.71c-3.478,0.988-6.706,2.409-9.201,5.15
			c-0.441,0.484-0.861,1.105-1.659,0.752c-0.705-0.312-0.476-0.99-0.476-1.536c-0.004-17.415-0.008-34.831,0.019-52.246
			c0.005-3.185,1.58-5.347,4.581-6.446c5.536-2.028,11.065-1.97,16.545,0.169c3.39,1.323,4.509,3.001,4.491,6.661
			c-0.043,8.832-0.112,17.664-0.204,26.495c-0.043,4.217,0.146,4.469,4.233,4.464c21.414-0.028,42.829-0.107,64.243-0.044
			c2.555,0.008,3.276-0.803,3.244-3.264c-0.155-12.162-0.145-24.327-0.246-36.49c-0.025-2.986-0.521-5.939-1.146-8.855
			c-0.409-1.913,0.51-2.53,2.159-2.267c13.164,2.102,26.274,4.486,39.272,7.468c1.59,0.365,2.195,1.344,2.337,2.785
			c0.065,0.66,0.015,1.332,0.015,1.999c-0.006,66.245-0.014,132.49-0.019,198.735c0,11.998,0.075,23.997,0.005,35.994
			c-0.139,23.562-9.703,42.889-26.624,58.881c-9.331,8.82-20.539,14.972-31.193,21.895c-22.105,14.363-44.309,28.574-66.442,42.894
			c-1.713,1.108-3.05,1.412-4.942,0.188c-27.864-18.02-55.782-35.957-83.681-53.924c-14.275-9.192-25.865-20.844-33.24-36.354
			c-4.844-10.188-7.607-20.792-7.56-32.189c0.155-37.329,0.104-74.658,0.133-111.988c0-0.917,0-1.833,0-2.75
			C123.856,213.727,123.828,213.727,123.8,213.727z"/>
		<path fill-rule="evenodd" clip-rule="evenodd" fill="#FFFFFF" d="M244.976,310.256c0,7.912-0.048,15.824,0.03,23.735
			c0.023,2.369-0.965,3.868-3.164,4.428c-4.169,1.061-8.377,1.912-12.664,2.452c-3.528,0.443-5.939-1.13-8.445-3.244
			c-2.011-1.696-2.694-3.066-1.043-5.445c1.129-1.627,1.23-3.748,1.23-5.762c0.002-32.897,0-65.795,0.021-98.692
			c0.001-1.483-0.415-2.711-1.301-3.911c-1.322-1.792-1.308-3.555,0.666-4.964c0.559-0.399,1.083-0.788,1.072-1.562
			c-0.036-2.403,1.551-3.229,3.541-3.819c5.743-1.701,11.686-1.475,17.559-1.914c1.353-0.101,2.04,0.691,2.572,1.896
			c2.157,4.89,5.572,6.535,10.873,5.415c7.679-1.623,14.817-4.823,22.127-7.525c3.895-1.44,7.824-2.754,12.037-2.802
			c6.296-0.071,9.677,2.99,10.359,9.269c0.688,6.313,0.223,12.646,0.387,18.967c0.05,1.932-1.08,2.695-2.914,3.025
			c-9.029,1.625-18.045,3.322-27.054,5.057c-4.315,0.831-5.38,2.133-5.43,6.63c-0.072,6.579-0.033,13.159-0.071,19.738
			c-0.021,3.369-0.634,4.011-3.982,4.417c-4.823,0.584-9.46,1.682-13.452,4.684c-2,1.504-3.025,3.37-3.003,5.941
			c0.069,7.995,0.025,15.99,0.025,23.986C244.959,310.256,244.968,310.256,244.976,310.256z"/>
		<path fill-rule="evenodd" clip-rule="evenodd" fill="#FFFFFF" d="M176.027,55.934c0.915,0.119,1.922-0.556,2.389,0.427
			c0.435,0.915-0.459,1.509-0.979,2.119c-2.292,2.688-4.05,5.71-5.314,8.979c-1.052,2.722-2.98,4.135-5.744,4.524
			c-13.18,1.858-26.231,4.399-39.224,7.267c-2.942,0.649-3.2,0.443-3.233-2.516c-0.035-3.083,0.032-6.167-0.025-9.248
			c-0.03-1.594,0.602-2.402,2.194-2.758c15.259-3.417,30.6-6.362,46.124-8.305C173.533,56.256,174.852,56.084,176.027,55.934z"/>
		<path fill-rule="evenodd" clip-rule="evenodd" fill="#FFFFFF" d="M377.064,72.329c-0.001,1.666-0.056,3.333,0.013,4.996
			c0.094,2.27-1.104,2.382-2.894,2c-7.227-1.546-14.45-3.113-21.71-4.494c-5.632-1.071-11.303-1.963-16.979-2.771
			c-3.305-0.47-5.506-1.993-6.576-5.229c-1.028-3.111-2.765-5.851-4.921-8.321c-0.531-0.609-1.479-1.186-1.041-2.082
			c0.592-1.21,1.827-0.505,2.686-0.392c15,1.971,29.944,4.28,44.694,7.713C378.567,65.667,376.846,64.121,377.064,72.329z"/>
		<path fill-rule="evenodd" clip-rule="evenodd" fill="#222222" d="M258.348,426.26c-2.241-1.619-4.235-2.945-6.092-4.443
			c-1.206-0.974-2.193-0.9-3.329,0.002c-1.427,1.134-2.901,2.207-4.347,3.317c-0.511,0.392-0.958,1.061-1.704,0.519
			c-0.679-0.493-0.099-1.068,0.039-1.572c0.456-1.68,0.899-3.368,1.482-5.006c0.613-1.722,0.35-2.997-1.273-4.034
			c-1.464-0.936-2.819-2.048-4.179-3.136c-0.413-0.33-1.097-0.673-0.793-1.372c0.226-0.52,0.841-0.449,1.333-0.468
			c1.743-0.066,3.495-0.25,5.229-0.142c1.726,0.109,2.645-0.644,3.135-2.168c0.582-1.812,1.165-3.622,1.747-5.435
			c0.171-0.533,0.166-1.272,0.914-1.299c0.805-0.029,0.735,0.72,0.88,1.26c0.384,1.435,0.837,2.852,1.177,4.296
			c0.582,2.477,2.086,3.667,4.638,3.514c1.492-0.09,2.984-0.181,4.479-0.253c0.495-0.024,1.037-0.035,1.261,0.539
			c0.229,0.59-0.224,0.936-0.6,1.233c-1.038,0.825-2.097,1.624-3.167,2.407c-2.332,1.708-2.752,3.903-1.986,6.607
			C257.674,422.337,258.808,423.934,258.348,426.26z"/>
		<path fill-rule="evenodd" clip-rule="evenodd" fill="#222221" d="M283.954,388.214c1.202,2.115,1.687,4.469,2.398,6.71
			c0.607,1.915,1.671,2.705,3.649,2.569c1.658-0.113,3.33-0.034,4.996-0.031c0.487,0.001,1.08-0.098,1.276,0.502
			c0.189,0.579-0.34,0.903-0.7,1.195c-1.485,1.2-2.954,2.433-4.528,3.509c-1.328,0.909-1.584,2.003-1.118,3.437
			c0.614,1.893,1.146,3.813,1.804,5.689c0.223,0.635,0.332,1.139-0.296,1.499c-0.575,0.33-0.887-0.23-1.25-0.515
			c-1.113-0.869-2.177-1.806-3.319-2.634c-2.556-1.853-4.09-1.742-6.434,0.33c-0.996,0.881-2.033,1.714-3.047,2.573
			c-0.322,0.273-0.677,0.605-1.099,0.375c-0.538-0.294-0.41-0.87-0.28-1.328c0.338-1.196,0.803-2.36,1.107-3.564
			c1.03-4.084,0.638-4.987-2.758-7.621c-1.057-0.819-3.214-1.317-2.76-2.759c0.463-1.472,2.5-0.412,3.824-0.635
			c0.729-0.122,1.506-0.104,2.243-0.007c2.182,0.287,3.177-0.854,3.733-2.785c0.595-2.064,1.341-4.084,2.039-6.117
			C283.479,388.482,283.683,388.413,283.954,388.214z"/>
		<path fill-rule="evenodd" clip-rule="evenodd" fill="#222221" d="M217.14,388.015c1.34,2.142,1.815,4.318,2.41,6.42
			c0.641,2.27,1.876,3.344,4.322,3.056c1.475-0.175,2.987-0.039,4.483-0.024c0.48,0.005,1.069-0.093,1.238,0.539
			c0.152,0.57-0.274,0.898-0.683,1.209c-1.454,1.104-2.885,2.237-4.356,3.317c-1.365,1.002-1.93,2.113-1.169,3.84
			c0.664,1.507,1.073,3.137,1.485,4.74c0.172,0.671,0.823,1.556,0.157,2.067c-0.879,0.677-1.423-0.486-2.05-0.866
			c-1.271-0.772-2.471-1.687-3.603-2.656c-1.427-1.223-2.705-1.273-4.153-0.011c-1.248,1.087-2.615,2.046-3.982,2.985
			c-0.498,0.342-0.967,1.155-1.695,0.696c-0.775-0.489-0.135-1.232,0.007-1.797c0.464-1.847,0.943-3.704,1.623-5.478
			c0.555-1.448,0.104-2.369-1.013-3.202c-1.528-1.142-3.05-2.291-4.542-3.478c-0.435-0.347-0.955-0.772-0.608-1.461
			c0.283-0.561,0.857-0.403,1.327-0.41c1.663-0.025,3.331-0.104,4.987,0.002c1.787,0.115,2.698-0.6,3.259-2.314
			C215.34,392.875,215.779,390.422,217.14,388.015z"/>
		<path fill-rule="evenodd" clip-rule="evenodd" fill="#222222" d="M263.229,261.004c-0.001,2.667,0.012,5.333-0.005,8
			c-0.015,2.215-1.115,3.411-3.369,3.419c-3.583,0.012-7.165,0.009-10.748-0.008c-1.787-0.009-3.008-0.694-3.29-2.658
			c-0.547-3.814-0.397-7.65-0.268-11.467c0.07-2.051,4.151-4.634,7.231-4.904c2.533-0.223,4.992,0.052,7.264,1.312
			c0.52,0.288,1.101,0.627,1.615,0.18c0.583-0.506,0.409-1.232,0.13-1.841c-0.784-1.708-2.025-3.023-3.645-3.97
			c-0.52-0.305-1.098-0.568-0.768-1.309c0.326-0.731,0.941-0.471,1.513-0.355c2.27,0.458,4.19,2.446,4.308,4.86
			C263.34,255.171,263.231,258.09,263.229,261.004z"/>
	</g>
</g>
</svg>
