<?xml version="1.0" encoding="utf-8"?>
<!-- Generator: Adobe Illustrator 16.0.0, SVG Export Plug-In . SVG Version: 6.00 Build 0)  -->
<!DOCTYPE svg PUBLIC "-//W3C//DTD SVG 1.1//EN" "http://www.w3.org/Graphics/SVG/1.1/DTD/svg11.dtd">
<svg version="1.1" id="Layer_1" xmlns="http://www.w3.org/2000/svg" xmlns:xlink="http://www.w3.org/1999/xlink" x="0px" y="0px"
	 width="500px" height="500px" viewBox="0 0 500 500" enable-background="new 0 0 500 500" xml:space="preserve">
<g>
	<g>
		<path fill-rule="evenodd" clip-rule="evenodd" fill="#164A9E" d="M500.499,500.499c-165.916,0-331.833-0.004-497.75,0.046
			c-1.875,0.001-2.297-0.422-2.297-2.296c0.05-165.166,0.05-330.333,0-495.5c0-1.875,0.422-2.297,2.297-2.297
			C168.666,0.503,334.583,0.5,500.499,0.5c0.464,0.865,0.235,1.8,0.235,2.699c0.012,164.868,0.012,329.734,0,494.603
			C500.734,498.699,500.963,499.635,500.499,500.499z"/>
		<path fill-rule="evenodd" clip-rule="evenodd" fill="#FFFFFF" d="M500.499,500.499c0-166.666,0-333.333,0-500
			c0.153,0.109,0.521-0.253,0.505,0.25c-0.021,0.666-0.005,1.333-0.005,2c0,165.167,0.001,330.333-0.03,495.5
			C500.969,498.98,501.545,499.944,500.499,500.499z"/>
		<path fill-rule="evenodd" clip-rule="evenodd" fill="#FFFFFF" d="M196.992,242.574c-7.46,0.536-14.922,1.061-22.381,1.61
			c-7.89,0.581-15.78,1.162-23.666,1.791c-3.052,0.243-5.252-0.988-6.994-3.442c-18.027-25.404-40.919-45.172-68.736-59.216
			c-2.663-1.345-4.339-3.293-4.264-6.445c0.072-3.046,1.801-4.85,4.383-6.106c19.278-9.378,39.489-15.715,60.793-18.286
			c58.657-7.079,110.686,8.449,155.301,47.105c35.384,30.658,57.049,69.459,65.044,115.717c0.267,1.545,0.875,2.074,2.389,2.169
			c16.206,1.008,32.359,2.566,48.407,5.066c7.301,1.138,14.591,2.41,21.575,4.969c1.489,0.546,2.943,1.168,4.225,2.107
			c2.228,1.634,2.231,3.379-0.059,4.987c-2.908,2.044-6.312,2.962-9.683,3.823c-11.063,2.825-22.361,4.276-33.682,5.585
			c-15.309,1.77-30.671,2.907-46.049,3.795c-15.719,0.907-31.454,1.476-47.196,1.866c-31.576,0.785-63.147,0.751-94.723-0.081
			c-23.822-0.628-47.621-1.67-71.362-3.709c-17.566-1.509-35.139-3.138-52.325-7.392c-3.307-0.818-6.604-1.744-9.531-3.563
			c-2.943-1.829-2.949-3.881,0.038-5.666c4.348-2.6,9.256-3.655,14.128-4.67c15.257-3.175,30.724-4.837,46.237-6.094
			c8.798-0.712,17.604-1.332,26.409-1.957c0.81-0.058,1.379-0.302,1.918-0.917c6.11-6.975,10.217-14.747,9.809-24.342
			c-0.143-3.356-0.939-6.584-2.101-9.713c-1.177-3.168-0.536-5.793,1.858-8.176c9.568-9.523,19.084-19.099,28.626-28.647
			c0.582-0.583,1.23-1.099,1.848-1.646C197.15,242.923,197.071,242.749,196.992,242.574z"/>
	</g>
</g>
</svg>
