<svg xmlns="http://www.w3.org/2000/svg" viewBox="0 0 217.4 217.4"><defs><style>.a{fill:#508694;}.b{fill:#fcfcfc;}</style></defs><title>AEI</title><rect class="a" x="-0.09" y="-1.74" width="222.31" height="222.31"/><path class="b" d="M24.38,93.77a79.33,79.33,0,0,1,79.18-79.23c45.08-.09,79.26,36.91,79.17,79.25a79.18,79.18,0,0,1-158.35,0Zm79.47,64.76A64.45,64.45,0,1,0,39.47,94,64.57,64.57,0,0,0,103.85,158.53Z"/><path class="b" d="M78.91,210.53V181.48H98.34v29.05H92.89V198.62h-8.4v11.91Zm5.6-24.11v7h8.23v-7Z"/><path class="b" d="M118.22,198.45h-9.06v7.26H123v4.85H103.5c0-.54-.06-1.06-.06-1.57,0-8.63,0-17.25,0-25.88,0-1.37.32-1.83,1.77-1.8,5.37.09,10.75,0,16.13,0,.52,0,1,0,1.67.08v4.85H109.13v7.27c2.57,0,5.06.05,7.55,0,1.16,0,1.66.28,1.56,1.51S118.22,197.24,118.22,198.45Z"/><path class="b" d="M133.19,210.59h-5.35V181.46h5.35Z"/><path class="b" d="M48.73,109.56a57.16,57.16,0,0,0,60.55,41.6c28.7-2.68,45.74-24.71,49.61-41.57H117.28c5.47,9.54,5,17.22-1.21,23.46a17.21,17.21,0,0,1-20.75,2.75A16.72,16.72,0,0,1,88,127.61c-2.68-6.42-1.55-12.43,2.61-18Zm53.21-60.51A91.23,91.23,0,0,0,75.36,53.3a92.25,92.25,0,0,0-18,7.66c-.63.35-1.33.61-.81,1.54,3.11,5.57,6.21,11.15,9.37,16.69a1.44,1.44,0,0,0,1.33.41c1.61-.71,3.14-1.57,4.71-2.35.77-.38,1-.81.57-1.64-1.18-2.5-2.23-5.06-3.45-7.54-.58-1.17-.48-1.85.81-2.3,3.16-1.11,6.3-2.25,9.45-3.4,1.13-.41,1.67,0,1.93,1.13a38.43,38.43,0,0,0,1.17,4.14,1.46,1.46,0,0,0,1.22.72,27.6,27.6,0,0,0,4.5-1,1.77,1.77,0,0,0,.94-1.42,25.74,25.74,0,0,0-.72-4.24c-.24-1,.09-1.5,1.11-1.61,2.85-.34,5.69-.78,8.55-1,3.47-.28,2.86-.31,3,2.72.24,4.87-.72,3.89,4.28,4a.85.85,0,0,1,.16,0c.88,0,1.23-.37,1.23-1.25a39,39,0,0,1,.16-4.46c.05-.42.73-1.13,1.07-1.1,3.54.3,7.09.69,10.62,1.17.35,0,.88.86.84,1.28a39.27,39.27,0,0,1-.75,4.4c-.18.91.11,1.39,1.06,1.56a33.25,33.25,0,0,1,4.21.93c1,.32,1.36-.11,1.58-.94.36-1.33.75-2.66,1.08-4,.25-1,.76-1.46,1.83-1.07,3.2,1.16,6.39,2.33,9.6,3.45,1.25.43,1.29,1.1.77,2.18-1.2,2.49-2.25,5.05-3.45,7.54-.43.9-.24,1.36.61,1.76a33.8,33.8,0,0,1,4.11,2.1c1.15.73,1.6.39,2.17-.67,2.76-5,5.58-10,8.38-15,1.15-2.05,1.15-2.06-.93-3.16C135.33,52.89,120.07,49,101.94,49.05Z"/><path class="b" d="M48.73,109.56H90.61c-4.16,5.62-5.29,11.63-2.61,18a16.72,16.72,0,0,0,7.32,8.19,17.21,17.21,0,0,0,20.75-2.75c6.25-6.24,6.68-13.92,1.21-23.46h41.61C155,126.45,138,148.48,109.28,151.16A57.16,57.16,0,0,1,48.73,109.56Z"/><path class="b" d="M101.94,49.05c18.13,0,33.39,3.84,47.71,11.46,2.08,1.1,2.08,1.11.93,3.16-2.8,5-5.62,10-8.38,15-.57,1.06-1,1.4-2.17.67a33.8,33.8,0,0,0-4.11-2.1c-.85-.4-1-.86-.61-1.76,1.2-2.49,2.25-5,3.45-7.54.52-1.08.48-1.75-.77-2.18-3.21-1.12-6.4-2.29-9.6-3.45-1.07-.39-1.58,0-1.83,1.07-.33,1.34-.72,2.67-1.08,4-.22.83-.56,1.26-1.58.94a33.25,33.25,0,0,0-4.21-.93c-1-.17-1.24-.65-1.06-1.56a39.27,39.27,0,0,0,.75-4.4c0-.42-.49-1.24-.84-1.28-3.53-.48-7.08-.87-10.62-1.17-.34,0-1,.68-1.07,1.1a39,39,0,0,0-.16,4.46c0,.88-.35,1.3-1.23,1.25a.85.85,0,0,0-.16,0c-5-.15-4,.83-4.28-4-.14-3,.47-3-3-2.72-2.86.23-5.7.67-8.55,1-1,.11-1.35.57-1.11,1.61a25.74,25.74,0,0,1,.72,4.24,1.77,1.77,0,0,1-.94,1.42,27.6,27.6,0,0,1-4.5,1,1.46,1.46,0,0,1-1.22-.72,38.43,38.43,0,0,1-1.17-4.14c-.26-1.12-.8-1.54-1.93-1.13-3.15,1.15-6.29,2.29-9.45,3.4-1.29.45-1.39,1.13-.81,2.3,1.22,2.48,2.27,5,3.45,7.54.4.83.2,1.26-.57,1.64-1.57.78-3.1,1.64-4.71,2.35a1.44,1.44,0,0,1-1.33-.41c-3.16-5.54-6.26-11.12-9.37-16.69-.52-.93.18-1.19.81-1.54a92.25,92.25,0,0,1,18-7.66A91.23,91.23,0,0,1,101.94,49.05Z"/><path class="b" d="M111.22,110.23a3,3,0,0,1-1.45-2.45c-.72-8.32-1.5-16.64-2.24-25-.17-1.88-.49-2.23-2.31-2.25-.86,0-1.71,0-2.56,0-2,0-2.23.31-2.41,2.31-.73,8.22-1.5,16.42-2.2,24.64a3.5,3.5,0,0,1-1.68,2.83A12.84,12.84,0,0,0,92,125.85a13,13,0,0,0,14.19,7.63A12.83,12.83,0,0,0,116.73,121,12.49,12.49,0,0,0,111.22,110.23Zm-7.33,17.44a7,7,0,0,1-6.85-7,6.86,6.86,0,0,1,13.71.17A7,7,0,0,1,103.89,127.67Z"/></svg>