<svg xmlns="http://www.w3.org/2000/svg" viewBox="0 0 217.4 217.4"><defs><style>.a{fill:#c9b64c;}.b{fill:#fcfcfc;}</style></defs><title>Civil</title><rect class="a" x="-3.46" y="-2.2" width="222.31" height="222.31"/><path class="b" d="M83.69,122.74c0-.46.06-.91.06-1.36,0-11.83,0-23.65,0-35.48,0-1.38.51-1.82,1.84-1.79,2.85.07,5.71.14,8.55,0s4.59,1.65,6.54,3.12c.42.32.46,1.32.46,2q0,16.8,0,33.61c0,1.13.17,2,1.57,1.92,1,0,1.55-.45,1.55-1.49v-2.49q0-20.07,0-40.13c0-1.3.51-1.79,1.75-1.76,1.66,0,3.32,0,5,0,1.4.08,2-.38,1.94-1.85,0-9.75,0-19.5-.07-29.25a2.74,2.74,0,0,1,1.45-2.65,13.41,13.41,0,0,1,8.29-2.4c4.5.27,9,.06,13.54.08,2.08,0,2.29.24,2.29,2.33v75.62c0,2.17.19,2.36,2.32,1.82.44-.11.82-.73,1.09-1.2.15-.27,0-.71,0-1.07V88.16c0-1.83.25-2,1.82-1.13s3.37,1.81,5.08,2.69a2.3,2.3,0,0,1,1.39,2.35c-.06,4.71,0,9.43-.05,14.15,0,1.45.49,1.74,1.87,1.94a12.75,12.75,0,0,1,4.18,1.73c.36.2.46,1.1.46,1.68,0,3.21,0,6.43,0,9.64,0,.45.06.89.12,1.73.62-.49,1-.75,1.34-1.07a50.46,50.46,0,0,0,9.42-12.69c.73-1.43,1.52-1.61,3-1.12,4.46,1.53,9,2.94,13.46,4.33,1.23.38,1.24.91.7,1.93-9.51,17.85-23.68,30.35-43,36.37-23,7.16-44.7,3.7-64.61-9.95A72.09,72.09,0,0,1,54.18,115a64,64,0,0,1-7.29-21.86,78.61,78.61,0,0,1,0-24.16A76.91,76.91,0,0,1,57.18,42.44C64.87,29.66,75.69,20.49,89.11,14.3a71,71,0,0,1,22.73-6.12,71.84,71.84,0,0,1,45.78,10.57,71.77,71.77,0,0,1,23.62,22.79c1.61,2.52,2.88,5.25,4.36,7.85.54.94.32,1.41-.66,1.71-4.85,1.46-9.72,2.88-14.55,4.42-1.17.38-1.62,0-2.16-.93a53.69,53.69,0,0,0-16.15-18.05c-33-23.43-79.54-4-85.53,36.07-2.54,17,1.26,32.68,12.56,46.1,1.28,1.51,2.74,2.88,4.11,4.31Z"/><path class="b" d="M92.5,181.77v4.59H79v19H92.51V210H73.76V181.77Z"/><path class="b" d="M118.5,209.93a2.16,2.16,0,0,1-.42.11c-4.86.27-4.87.27-6-4.41-1.9-7.9-3.78-15.8-5.73-24,1.65,0,3.18-.07,4.7.06.33,0,.78.72.89,1.18,1.17,4.78,2.29,9.57,3.43,14.35a2.49,2.49,0,0,0,.58,1.21l2.25-9.48c.5-2.06,1-4.11,1.45-6.19a1.21,1.21,0,0,1,1.47-1.15c1.28.05,2.57,0,4.14,0C123,191.23,120.73,200.61,118.5,209.93Z"/><path class="b" d="M144.26,205.37h13.58v4.57H139.08V181.75h5.18Z"/><path class="b" d="M102.76,210H97.7V181.77h5.06Z"/><path class="b" d="M134.21,210h-5.05V181.8h5.05Z"/></svg>