<svg xmlns="http://www.w3.org/2000/svg" viewBox="0 0 217.4 217.4"><defs><style>.a{fill:#d4872f;}.b{fill:#fcfcfc;}</style></defs><title>CSE</title><rect class="a" x="-2.48" y="-1.74" width="222.31" height="222.31"/><path class="b" d="M185.35,81.22c-4.5.17-8.7.32-12.89.5-1.08,0-1.13-.63-1.27-1.42-2.33-12.66-7.75-23.81-17.17-32.63-17.51-16.39-38.11-21.75-61-14.35s-36.67,23.46-41,47C45.72,114.63,69.73,146.7,104.39,151a61.91,61.91,0,0,0,17.82-.5c5.32-.89,9.19-5.49,8.41-10.91-.66-4.57-1-9.19-1.55-13.79-.38-3.28-2.2-5.81-4.36-8.16-.36-.38-.65-.82-1.1-1.4.54-.33.94-.63,1.39-.86,5.85-2.9,11.15-6.43,14.49-12.3a1.84,1.84,0,0,1,1.36-.87c6.42.52,11.85-1.92,16.91-5.52a4.13,4.13,0,0,1,.85-.32,10.65,10.65,0,0,1,.42,2.33c-.27,6.42-2.76,11.91-8,15.58a10.26,10.26,0,0,0-4.77,9.72c.27,6.65.56,13.3.59,19.94,0,6.88-4.22,14.5-11.66,17.33a67.34,67.34,0,0,1-27.59,4.06A72.66,72.66,0,0,1,62.7,147.56C48,134.93,39.3,118.94,37,99.65a74.73,74.73,0,0,1,147-25.88C184.49,76.2,184.87,78.67,185.35,81.22Z"/><path class="b" d="M94.59,91.37c-.67.76-1.21,1.4-1.78,2A15.89,15.89,0,0,0,88.34,102a1.69,1.69,0,0,1-.83,1.21c-6.46,2.48-12.94,3.23-19.15-.64-7.3-4.54-10.6-14.32-7.82-22.91A21.87,21.87,0,0,1,66.9,69.53a4,4,0,0,0,1-1.89A20.25,20.25,0,0,1,87.53,52.71a3.76,3.76,0,0,0,2.29-1c7-6.59,15.13-8.34,24.17-5.34a11.62,11.62,0,0,0,5.82.16A25.67,25.67,0,0,1,146,58.29a2.13,2.13,0,0,0,.74.75,23.29,23.29,0,0,1,10.83,12.9,25.62,25.62,0,0,1,.94,14.78c-1.25,5.58-5.36,8.41-10.37,10.31-3.34,1.27-6.81,1-10.26.91a3.28,3.28,0,0,0-3.53,1.94,58.13,58.13,0,0,1-4.08,6.28c-3.28,4.73-11.39,8.42-18.35,5.82a2.76,2.76,0,0,0-2.5.26c-4.58,2.31-9.28,2.43-13.71-.22s-5.36-9-2.37-13.46a18.63,18.63,0,0,1,3.78-4,3.48,3.48,0,0,0,1.62-3.35c-.61-5.25,4.82-9.88,9.57-9,2.48.44,3.77-.08,5.17-2.12,2.06-3,8.26-5.34,13.39-3a8.94,8.94,0,0,0,2.4.85,1.89,1.89,0,0,0,1.61-.54,3.33,3.33,0,0,0-.07-1.89c0-.21-.32-.44-.55-.55-3.22-1.52-6.44-3.16-10.17-2-1.19.39-1.63,0-1.9-1.13a8.85,8.85,0,0,1,3.55-10,15.82,15.82,0,0,1,7.46-3c5.89-.77,10.49,2.94,11.29,9.27a3.92,3.92,0,0,0,2.47,3.38c2.41,1.11,4,2.78,3.92,5.63-.11,3.05-1,5.56-4.1,7s-6.38,1.56-9.68,1.53a22.91,22.91,0,0,0-11,2.8,17.09,17.09,0,0,0-6.28,6A54.93,54.93,0,0,1,112.21,99c-1,1.21-2.28,1-3.49.38A17.72,17.72,0,0,0,106.55,98a2.75,2.75,0,0,0-2.1.15,1.32,1.32,0,0,0-.07,2.17c3.43,3.64,7.76,4.35,11.43.2a23.33,23.33,0,0,0,2.64-3.79c2.7-4.7,7-6.79,12.12-7.59a30.64,30.64,0,0,1,5.42-.29,18.25,18.25,0,0,0,9.67-2.74A9.69,9.69,0,0,0,150.4,75a10.23,10.23,0,0,0-5.12-6.24,3.27,3.27,0,0,1-1.69-2.43c-1.72-8.82-10-13.31-18.46-10.05a11,11,0,0,0-2.62,1.13c-1.47,1.08-2.4.42-3.59-.56-5.18-4.31-11-6.15-17.62-3.85a10.87,10.87,0,0,0-6.53,6,2.49,2.49,0,0,1-2.35,1.69,17,17,0,0,0-10.9,5,10.67,10.67,0,0,0-3,6.68c-.17,1.76-.8,2.42-2.58,2.63A10.65,10.65,0,0,0,67,86.35c.73,5.6,5.86,9.94,11.24,9.32a13.62,13.62,0,0,0,4.29-1.53,1.83,1.83,0,0,0,.67-1.67,2.29,2.29,0,0,0-1.72-1,28.36,28.36,0,0,0-3.15.43c-3.47.29-5.68-.9-7.11-3.72a7.07,7.07,0,0,1,1-7.48,7.15,7.15,0,0,1,8.12-2A23.92,23.92,0,0,1,89.13,85C91.05,87,92.73,89.18,94.59,91.37Z"/><path class="b" d="M95.67,86.68l-6.19-5.47c-2.19-1.95-4.44-3.79-7.34-4.65a1.59,1.59,0,0,1-.71-1.26c0-5.14,3-9,8.14-10.18a34.43,34.43,0,0,1,5.33-.87,1.92,1.92,0,0,0,2-1.44C98.71,56.3,105,55,110.55,56.63c2.16.65,4,2.27,6,3.48.82.5.77,1.11.21,1.86a12.7,12.7,0,0,0-2.15,11.91,1.55,1.55,0,0,1-.5,1.24q-2,1.75-4,3.36a2.61,2.61,0,0,1-1.55.55c-6-.2-10.31,2.31-12.9,7.76-.06.12-.23.2-.35.3Z"/><path class="b" d="M169.94,94.67c0-3.3,0-6.6,0-9.89,0-1.78.64-2.38,2.43-2.38l14,0a1.81,1.81,0,0,1,2.07,2q0,10,0,19.93c0,1.17-.37,1.7-1.68,1.68-5.2-.08-10.4-.07-15.6,0-1,0-1.28-.4-1.27-1.33C170,101.37,169.94,98,169.94,94.67Zm4.86,6.58.47.33,7.53-8.9c-.82-.1-1.08-.15-1.34-.16-2.28-.11-2.32-.19-1.29-2.25.69-1.37,1.33-2.77,2-4.16l-.41-.22-7.57,8.47a7.44,7.44,0,0,0,.94.26c2.55.1,2.62.21,1.57,2.52C176.08,98.51,175.43,99.88,174.8,101.25Z"/><path class="b" d="M124,195.22v16.93H104.72v-4.66h13.73v-7.37H104.71V183.18H124v4.74H110.11v7.3Z"/><path class="b" d="M148.25,207.39v4.77H129v-29h19.23v4.72H134.41v7.28h8.86V200h-8.83v7.37Z"/><path class="b" d="M99.37,207.39v4.77H80.1v-29H99.35v4.66H85.55v19.56Z"/><path class="b" d="M179.26,118.85c-1.81,0-3.62,0-5.43,0-.93,0-1.36-.32-1.35-1.3,0-3.14.07-6.28,0-9.42,0-1.3.8-1.4,1.64-1.42,2.23,0,4.46,0,6.69,0,1.39,0,2.77.11,4.15.12.86,0,1.24.32,1.23,1.23q0,4.71,0,9.42c0,1-.39,1.34-1.34,1.32-1.87,0-3.73,0-5.59,0Zm2.92-5.47c1.18.08,2.17.17,2.16-1.6s-.9-1.61-2.1-1.7c-1.65-.13-1.76.74-1.78,2S181.16,113.56,182.18,113.38Zm-5.56,0c1.34.41,1.68-.19,1.71-1.53s-.45-1.78-1.73-1.73c-1.06,0-1.93-.06-1.93,1.52S175.11,113.67,176.62,113.34Z"/></svg>