<svg xmlns="http://www.w3.org/2000/svg" viewBox="0 0 217.4 217.4"><defs><style>.a{fill:#7d93aa;}.b{fill:#fcfcfc;}</style></defs><title>ECE</title><rect class="a" x="-2.49" y="-3.07" width="222.31" height="222.31"/><path class="b" d="M89.37,63.68a27.44,27.44,0,0,1,2.62,2q10.41,10.45,20.79,21a2.79,2.79,0,0,0,.54.17c.05-.59.13-1.12.13-1.66,0-5.91,0-11.82,0-17.73,0-2.18.31-2.47,2.5-2.48,1.07,0,2.13,0,3.2,0,1.49-.07,2.1.57,2.09,2.08,0,5.7,0,11.4,0,17.09,0,1.39.33,1.82,1.77,1.82q21.32-.08,42.65,0c1.44,0,1.82-.38,1.62-1.83A60.86,60.86,0,0,0,151.92,51.4c-1.58-1.76-1.6-2.33.05-4q3.94-4,7.91-7.9c1.45-1.44,2.74-1.46,4.1,0A77.18,77.18,0,0,1,180.8,68,76.35,76.35,0,0,1,184,103a77.19,77.19,0,0,1-20.22,42.54,2.31,2.31,0,0,1-3.62.13c-2.82-2.74-5.61-5.54-8.36-8.35a2.66,2.66,0,0,1,0-3.73,59.11,59.11,0,0,0,12.93-22.32c1.06-3.44,1.62-7,2.46-10.54.35-1.5-.27-1.8-1.65-1.79-9.9,0-19.8,0-29.71,0H123.09c-.57,0-1.14.06-1.86.1v5.71c0,4.31,0,8.62,0,12.94,0,1.74-.44,2.16-2.17,2.2-1.12,0-2.24,0-3.36,0-1.9,0-2.24-.33-2.24-2.23,0-6,0-11.93,0-17.89,0-.56-.06-1.11-.11-2-.51.45-.8.66-1,.91C106,105,99.74,111.32,93.41,117.57a39.17,39.17,0,0,1-4,3c-.14-1.16-.28-1.76-.28-2.35,0-5.86,0-11.72,0-17.57,0-1.31-.31-1.73-1.67-1.73q-19.72.08-39.45,0c-1.3,0-1.79.26-1.59,1.71a60.81,60.81,0,0,0,15.15,32.64c1.89,2.12,1.9,2.43-.11,4.44-2.56,2.56-5.11,5.13-7.68,7.68-1.77,1.77-2.45,1.76-4.17-.13A77.68,77.68,0,0,1,35.51,123.6a77.82,77.82,0,0,1,14.16-84c1.82-2,2.3-2,4.23-.06q3.85,3.83,7.68,7.68c1.7,1.72,1.71,2.52.11,4.32a60.86,60.86,0,0,0-15.2,32.61c-.21,1.51.28,1.8,1.66,1.8q19.65-.06,39.29,0c1.42,0,1.78-.4,1.76-1.81-.09-6,0-12,0-18.05C89.16,65.49,89.26,64.87,89.37,63.68Z"/><path class="b" d="M81,184.06v7.4h8.9v4.83H81v7.32H94.83v4.73H75.59V179.42H94.83v4.64Z"/><path class="b" d="M124.49,179.38h19.22v4.67H129.9v7.39h8.86v4.83h-8.88v7.38h13.83v4.68H124.49Z"/><path class="b" d="M100.13,208.34v-28.9a10.34,10.34,0,0,1,1.26-.16c5.54,0,11.08,0,16.62,0,1.18,0,1.64.32,1.53,1.54-.09,1,0,2.1,0,3.32H105.59v19.55h13.84v4.68Z"/></svg>