<svg xmlns="http://www.w3.org/2000/svg" viewBox="0 0 217.4 217.4"><defs><style>.a{fill:#d19b6f;}.b{fill:#fcfcfc;}</style></defs><title>eee</title><rect class="a" x="-1.15" y="-2.2" width="222.31" height="222.31"/><path class="b" d="M95.37,98.86c0-4,0-8,0-12,0-1.26-.38-1.8-1.7-1.76-4,.09-8,.09-12,.13-1.89,0-2-.15-2-2,.08-5,.19-10.07.16-15.1-.06-11.38,5.39-19.9,13.86-26.83A28.85,28.85,0,0,1,105,35.43c.45-.11,1.1-.66,1.12-1,.19-3.68,2.44-6.39,4.39-9.15,5.51-7.79,13.41-11.14,22.74-11.52A52.16,52.16,0,0,1,151.5,16a49.75,49.75,0,0,1,18.86,11.22c9.38,8.76,15.23,19.57,18.31,32a70.33,70.33,0,0,1,1.79,25c-1.73,15-7,28.67-17.24,40a68.74,68.74,0,0,1-38.72,22,102.29,102.29,0,0,1-27,1.31A56.12,56.12,0,0,1,89.14,143a93.17,93.17,0,0,1-14.49-7.48A68.29,68.29,0,0,1,49.9,106.33a80.83,80.83,0,0,1-5.68-20.17A80.68,80.68,0,0,1,45,56.44a60.59,60.59,0,0,1,7.79-19.11A66.06,66.06,0,0,1,73.78,16c2.23-1.46,4.88-2.51,7.53-1.2,5.06,2.51,7.41,7.13,2.48,12.42a51.54,51.54,0,0,1-6.09,5.33A48.72,48.72,0,0,0,63.52,51a54.55,54.55,0,0,0-4.8,27.9,59.11,59.11,0,0,0,9.92,28.67,55.71,55.71,0,0,0,28.53,21.9,59.23,59.23,0,0,0,22.06,3.26,61.47,61.47,0,0,0,19.39-4.09,56.1,56.1,0,0,0,21.24-13.84A54.42,54.42,0,0,0,173.52,90a52,52,0,0,0,1.67-15.28C174.58,63.31,171.09,53,164,43.9a39.1,39.1,0,0,0-19.17-13.26,35,35,0,0,0-10.27-1.55c-3.93-.08-6.07,2.07-8,5-.59.89-.53,1.37.59,1.83,10.55,4.36,17.55,12.23,21.58,22.71A29.35,29.35,0,0,1,151,71.24c-.28,4-.06,8,0,12,0,1.57-.68,2.06-2.19,2-4.41-.09-8.83-.09-13.25-.08-2,0-2.09.17-2.09,2.19q0,11.39,0,22.77c0,2.13-.19,2.3-2.31,2.29-2.8,0-5.61-.07-8.42,0-1.31,0-1.72-.45-1.71-1.73.05-7.9,0-15.81.07-23.71,0-1.32-.34-1.88-1.75-1.87-3,0-6-.07-9-.13-2.32,0-2.67.31-2.67,2.67q0,11.46,0,22.93c0,2,0,2-2.09,2.07-2.85,0-5.71,0-8.57.12-1.3,0-1.7-.48-1.68-1.75.07-4,0-8.11,0-12.17Z"/><path class="b" d="M83.44,210.51V182.25h18.8v4.54H88.78V194h8.63v4.71H88.75v7.2h13.5v4.58Z"/><path class="b" d="M131.21,182.25H150v4.56H136.5V194h8.65v4.71h-8.67v7.2H150v4.58H131.21Z"/><path class="b" d="M107.5,182.25h18.77v4.56H112.79V194h8.65v4.71h-8.67v7.2h13.5v4.58H107.5Z"/></svg>