<svg xmlns="http://www.w3.org/2000/svg" viewBox="0 0 217.4 217.4"><defs><style>.a{fill:#231f20;}.b{fill:#fcfcfc;}</style></defs><title>IT</title><rect class="a" x="-2.14" y="-4.51" width="222.31" height="222.31"/><path class="b" d="M191.28,87.64c.26,40.19-33.22,73-73.64,72.15a72.14,72.14,0,0,1,2.72-144.26C160.69,16.21,191.6,49.41,191.28,87.64Zm-104.71-49C69,49.87,56.4,73,61.25,98.76c4.22,22.42,20.68,37.77,34.72,42.87,0-.27,0-.52,0-.77q0-46.77,0-93.53a2.62,2.62,0,0,0-.87-1.77C92.34,43.21,89.48,41,86.57,38.61Zm89.36,64.82A57.64,57.64,0,0,0,178,82.7c-1.64-16.08-8.28-29.7-20.76-40-16-13.22-34.2-16.93-54.27-11.75-1.1.29-1.41.81-1.39,1.92.08,3.08.07,6.16,0,9.24a2.59,2.59,0,0,0,1.1,2.32q28.36,22.83,56.69,45.72Zm-74.26,22.44c.54-.57.89-.92,1.21-1.29q7.25-8.2,14.46-16.41c2.25-2.54,4.16-2.25,5.65.75q8.21,16.53,16.45,33c.15.31.36.58.67,1.07l10.46-5.22c-.36-.76-.55-1.17-.75-1.58q-7.87-15.82-15.76-31.66c-1.56-3.15-.26-5.33,3.29-5.48,5.6-.23,11.19-.44,16.78-.68,1.93-.08,3.85-.22,6.13-.35L101.67,50.79Zm17.72-11.49c-5.83,6.63-11.51,13.05-17.14,19.52a3.08,3.08,0,0,0-.61,1.78c-.07,2.31,0,4.63-.06,6.93,0,1.12.39,1.5,1.37,1.78A60,60,0,0,0,129,145.84c1.78-.28,3.54-.75,5.45-1.17Zm54.71-5.15c-2.25-1.82-4.37-3.59-6.57-5.26a2.83,2.83,0,0,0-1.72-.37q-9.37.33-18.75.73c-2.13.08-4.25.23-6.61.37l14.77,29.69A59.21,59.21,0,0,0,174.1,109.23ZM96,33.42l-4.29,2L96,38.89Z"/><path class="b" d="M122.15,210.28V187h-6.63v-4.56h18.57v4.47h-6.64v23.42Z"/><path class="b" d="M110.37,210.34h-5v-28h5Z"/></svg>