<svg xmlns="http://www.w3.org/2000/svg" viewBox="0 0 217.4 217.4"><defs><style>.a{fill:#929d79;}.b{fill:#fcfcfc;}</style></defs><title>Mech</title><rect class="a" x="-1.27" y="-0.4" width="222.31" height="222.31"/><path class="b" d="M118.78,145c0-4.63,0-9.27,0-13.9a1.94,1.94,0,0,1,1.68-2.28c19.95-5.44,34-24.41,32.58-44.64-1.11-16.05-9.77-30.68-28.17-37.21a69.25,69.25,0,0,0-14-3.38c-10-1.3-18.83,1.9-26.52,8.14C73.49,60.46,67.41,71.86,66.61,85.79a41.53,41.53,0,0,0,26.85,41.3,57.68,57.68,0,0,0,5.68,1.82,1.54,1.54,0,0,1,1.32,1.79q0,14.27,0,28.53c0,1.29-.45,1.61-1.64,1.62s-1.44-.61-1.43-1.67c0-4.14,0-8.27,0-12.4a1.81,1.81,0,0,0-1.57-2.1A73.77,73.77,0,0,1,77.17,137a1.66,1.66,0,0,0-2.34.39c-2.52,2.55-5.11,5-7.68,7.54-.42.41-.86.82-1.33,1.2a2.06,2.06,0,0,1-3.07-.1c-4.81-5-9.62-9.95-14.35-15a2.39,2.39,0,0,1-.18-2,4.44,4.44,0,0,1,1.3-1.59q4.26-4.08,8.58-8.1c.57-.53.9-1,.4-1.78-3.2-5-4.51-10.81-6.23-16.41a2.31,2.31,0,0,0-2.47-2c-4-.16-7.95-.5-11.93-.7-1.45-.08-2-.7-2-2.15q.21-10.23.28-20.46c0-1.33.57-1.72,1.79-1.73,4.19,0,8.37-.16,12.55-.23.81,0,1.5-.08,1.6-1.11.44-4.35,2.26-8.22,4.19-12,.73-1.47,1.42-3,2.28-4.37a1.68,1.68,0,0,0-.45-2.54C56,52,53.91,50.07,51.91,48.05a47.69,47.69,0,0,1-3.06-3.84c-.57-.69-.37-1.21.21-1.8,4.83-4.88,9.64-9.8,14.48-14.68,1.28-1.3,1.63-1.26,2.95,0,3.08,2.9,6.18,5.78,9.22,8.72a1.8,1.8,0,0,0,2.48.33,74.82,74.82,0,0,1,18.28-7.59c1-.23,1.11-.83,1.14-1.65.11-3.58.24-7.16.37-10.74,0-.5.08-1,.12-1.49.08-1,.54-1.44,1.64-1.43,6.77,0,13.54,0,20.31,0,1.89,0,2.24.37,2.27,2.29.05,3.74.11,7.47.09,11.2,0,1,.2,1.63,1.34,1.9,6.3,1.49,12.05,4.37,17.7,7.42a2,2,0,0,0,2.83-.46c2.84-2.86,5.75-5.65,8.65-8.46,1.47-1.43,2.32-1.43,3.76.08,4.5,4.72,9,9.49,13.48,14.18,1,1,1,1.78,0,2.77-3.1,3.22-6.15,6.51-9.27,9.73a1.78,1.78,0,0,0-.42,2.33c2.22,5.16,4.39,10.35,6.42,15.59a2.36,2.36,0,0,0,2.59,1.81c4,0,8,.11,12,.19,2.12,0,2.44.37,2.42,2.46-.06,6.47-.18,12.95-.2,19.42,0,1.46-.57,2.06-2,2.14-4.28.22-8.55.53-12.83.77a1.69,1.69,0,0,0-1.7,1.31q-3.1,8.07-6.37,16.08a1.7,1.7,0,0,0,.38,2.22c2.88,2.81,5.72,5.68,8.56,8.54,1.42,1.44,1.42,2.2.09,3.69-3,3.35-5.9,6.75-8.95,10a61.61,61.61,0,0,1-4.61,4.23,2,2,0,0,1-2.74.11,18.46,18.46,0,0,1-1.63-1.29c-2.51-2.35-5-4.69-7.48-7.09a1.87,1.87,0,0,0-2.47-.46c-5.47,2.5-10.95,5-16.51,7.3-2.93,1.22-3,1.06-3,4.3,0,3.69-.05,7.37,0,11.06,0,1.35-.55,1.59-1.7,1.54s-2.05.18-2-1.52C118.84,154.53,118.78,149.75,118.78,145Z"/><path class="b" d="M67.16,211.61h-5v-27.2c2.46,0,4.92,0,7.38.06.29,0,.66.77.8,1.24,1.6,5.43,3.15,10.88,4.73,16.32.15.51.34,1,.63,1.87,1.31-4.53,2.53-8.72,3.74-12.9.54-1.87,1-3.75,1.65-5.58a1.63,1.63,0,0,1,1.13-1c2.29-.1,4.57-.05,7-.05v27.17H84.29V192.18l-.33-.07c-1.91,6.5-3.83,13-5.73,19.44a2.64,2.64,0,0,1-.41.09c-1.49,0-3.36.51-4.37-.19s-1.12-2.61-1.54-4c-1.39-4.62-2.73-9.25-4.1-13.87a2.42,2.42,0,0,0-.65-1.2Z"/><path class="b" d="M139.86,184.48h4.91v11.19h8V184.51h5.06v27.07h-5v-11.2h-8v11.17h-5Z"/><path class="b" d="M112.12,211.61h-18V184.47h18v4.37H99.21v6.91h8.28v4.52h-8.3v6.9h12.93Z"/><path class="b" d="M105.24,98.92a8.93,8.93,0,0,1-.78,1.32c-1.69,1.88-3.45,3.72-5.11,5.64-.84,1-1.63.48-2.39.08-5.46-2.87-10.95-5.7-16.34-8.7-3.34-1.86-6.5-4.05-9.8-6C69,90.21,70.18,89.13,70.6,88c.5-1.33,1.4-.73,2.22-.46Q88,92.69,103.07,97.83A19.14,19.14,0,0,1,105.24,98.92Z"/><path class="b" d="M117.16,184.49h18v4.37H122.2v18.29h12.92v4.39h-18Z"/><path class="b" d="M114.87,99.1c2.48-.9,4.62-1.68,6.76-2.44l25.29-9a2.46,2.46,0,0,1,3.42,1.81c.31,1.15-.45,1.6-1.26,2l-14.36,8c-3.92,2.17-7.85,4.31-11.74,6.53a1.46,1.46,0,0,1-2.16-.35C119,103.49,117,101.44,114.87,99.1Z"/><path class="b" d="M104.3,145.35c0-4.63.07-9.26,0-13.89,0-1.75,1-1.42,2-1.49s1.73.1,1.72,1.51q-.11,13.88,0,27.76c0,1.64-.84,1.57-2,1.6s-1.82-.15-1.8-1.61C104.36,154.6,104.3,150,104.3,145.35Z"/><path class="b" d="M114.89,145.26c0,4.67,0,9.35,0,14,0,1.16-.33,1.59-1.53,1.57s-1.59-.32-1.58-1.53q.06-13.95,0-27.9c0-1.29.55-1.46,1.61-1.47s1.51.27,1.5,1.43c-.06,4.63,0,9.25,0,13.88Z"/><path class="b" d="M110.7,106.68c1.11,4.54,2.18,8.92,3.26,13.3.19.79-.14,1.16-.91,1.14-1.64,0-3.27-.07-4.91-.16-.77,0-1.19-.46-1-1.31l3.12-12.59C110.3,107,110.42,106.93,110.7,106.68Z"/></svg>