<svg xmlns="http://www.w3.org/2000/svg" viewBox="0 0 221 221"><defs><style>.a{fill:#6a463b;}.b{fill:#fcfcfc;}</style></defs><title>NonTech</title><rect class="a" x="-1.08" y="-0.4" width="222.31" height="222.31"/><path class="b" d="M138.41,44.76l4.2,3.81a2.92,2.92,0,0,0,.79-3.72c-.93-2-2-4-2.77-6a9.6,9.6,0,0,1-.06-3.13l.53-.07.71,1a14.06,14.06,0,0,1,3.68-8.55,14.94,14.94,0,0,0,1,2.94,3.48,3.48,0,0,0,1.71,1.23,1.41,1.41,0,0,0,1.26-.47,1.51,1.51,0,0,0,.07-1.33c-1.56-2.84-3.21-5.61-6.27-7.14a2.58,2.58,0,0,1-1-1c2.86-.29,5.38.77,7.71,2.05a74.75,74.75,0,0,1,6.41,4.44l.28-.26-.43-1.84c3.31,1.82,5.2,4.76,7,7.76a6.09,6.09,0,0,0,.75,1.1c.16.16.5.14.76.2a2.67,2.67,0,0,0,.14-.86,12.83,12.83,0,0,0-.46-1.49l.34-.29a13.52,13.52,0,0,1,1.28.93A25.88,25.88,0,0,1,172,42.73,79.3,79.3,0,0,1,176.45,54a92.46,92.46,0,0,1,2.77,14.27,74.91,74.91,0,0,1,.29,13.56,64.68,64.68,0,0,1-3.19,16.93c-3.16,9-7.36,17.48-13.7,24.73a90.24,90.24,0,0,1-12,11.32,70.7,70.7,0,0,1-26.53,12.74,71.42,71.42,0,0,1-23.34,1.83,68.84,68.84,0,0,1-12.33-2.12,85.14,85.14,0,0,1-13.52-4.61,56.64,56.64,0,0,1-17.09-11.52,128.22,128.22,0,0,1-10.08-10.79A67,67,0,0,1,36,97.44,80,80,0,0,1,33.1,80.76,71.67,71.67,0,0,1,35.67,55.9c.68-2.37,1.63-4.67,2.47-7,1.18-3.24,3.88-5.14,6.37-7.21C50.2,37,55.87,32.23,61.59,27.54c2.31-1.89,4.72-3.67,7.08-5.5a2.57,2.57,0,0,1,3.42,0c3.37,2.52,6.82,4.95,10,7.64C86.51,33.31,90.7,37.16,95,40.9a2.63,2.63,0,0,1,.76,3.23c-1.75,3.55-3.58,7.09-5.62,10.49-1.94,3.23-4.23,6.25-6.29,9.41a1.36,1.36,0,0,1-2,.62c-4.52-2.06-9.14-3.93-13.23-6.86a2.42,2.42,0,0,1-1.06-2.94c1-3.17,2.11-6.27,3.17-9.4A16.11,16.11,0,0,0,71.49,43c.28-1.77-.32-2.78-1.72-3.15A3,3,0,0,0,66.7,42c-1.19,4-2.4,8-3.48,12-.89,3.33-.2,5.36,2.69,7.15,4.55,2.82,9.17,5.55,13.89,8.08,1.26.69,3,.64,4.5.7.5,0,1.12-.57,1.53-1,2.74-3,5.41-6,8.17-9,1.6-1.72,2.59-1.55,3.83.43A31.67,31.67,0,0,1,102,70.75,4.5,4.5,0,0,1,99.93,76c-5.17,3.43-10.29,6.92-15.29,10.59-2.7,2-5.55,3.91-7.15,7-4.42,8.69-1.65,17,6,22a45.13,45.13,0,0,0,15.36,6.94,43.26,43.26,0,0,0,21.87-.86,44.74,44.74,0,0,0,16-8.91,42.76,42.76,0,0,0,12.82-19.47,39.79,39.79,0,0,0,2-16.6A44.07,44.07,0,0,0,141,51.65C139.4,49.78,138,47.71,138.41,44.76Z"/><path class="b" d="M71.62,185.77c.81,2.18,1.33,3.63,1.89,5.08.79,2.09,1.59,4.19,2.43,6.27a18.26,18.26,0,0,0,1.74,3.4c0-.47.1-1,.1-1.42,0-3.91,0-7.83,0-11.74,0-1.26.18-2,1.74-1.76a29.23,29.23,0,0,0,4.09,0v28c-1.81,0-3.58,0-5.35,0a1.42,1.42,0,0,1-1-.62c-1.33-3-2.59-6-3.87-8.95a33.2,33.2,0,0,0-1.41-3.09c-.17-.3-.79-.34-1.49-.61v13.34H64.58c0-.93-.17-2-.17-3,0-7.72.06-15.45,0-23.17,0-1.43.45-1.84,1.82-1.76C68.21,185.85,70.2,185.77,71.62,185.77Z"/><path class="b" d="M18.74,185.63c2,0,3.84-.07,5.71.05.36,0,.77.73,1,1.2,1.13,2.45,2.21,4.92,3.28,7.39.32.73.52,1.51.85,2.22a22.72,22.72,0,0,0,2.24,3.85V185.8h5.66v27.74a28.08,28.08,0,0,1-5.42-.12c-.75-.14-1.26-1.5-1.88-2.32L29.33,210a39.67,39.67,0,0,0-4.8-10.63,4.47,4.47,0,0,0-.37,1.25c0,3.91-.07,7.82,0,11.73,0,1.17-.29,1.45-1.46,1.28a28.4,28.4,0,0,0-4,0Z"/><path class="b" d="M60.23,185.78v27.78h-3c-5,0-9.94.06-14.9,0-.25,0-.69-.58-.71-.91-.08-1.95-.07-3.91-.07-5.87q0-9.63,0-19.27v-1.77ZM47.14,208.54c2.1,0,4.12.11,6.13,0,.84-.06,2-.79,1.59-1.7-.52-1.1,0-2,0-2.94-.06-3.75,0-7.51,0-11.27V191H47.14Z"/><path class="b" d="M135.11,190.84v6.21c2.33,0,4.71.08,7.08,0,1,0,1.39.12,1.3,1.19-.11,1.28.4,3-.26,3.72s-2.41.25-3.69.27c-1.44,0-2.9,0-4.45,0v6.18h1.55c3.51.07,7,.13,10.53.21.77,0,1.11.18.89,1.17a19.24,19.24,0,0,0-.05,3.81h-.93c-.79,0-1.62,0-2.46,0h-13.4c-.26,0-.53,0-.77,0h-1.61c0-.17,0-.33,0-.5q.06-12.65.14-25.3c0-2,0-2.11,2.1-2.11,5.07,0,10.14.06,15.21.09h1.9v5.1Z"/><path class="b" d="M180.84,213.6h-5.33V185.77h5.27V197h7.58c.09-1.39.24-2.7.27-4,0-2.1.06-4.22,0-6.32,0-1,.33-1.22,1.2-1.16,1.39.1,2.77.15,4.28.23v27.66c-1.59.57-3.58-.66-5.32,1V202.19h-7.93Z"/><path class="b" d="M171.12,185.75c.11,1.79.2,3.4.3,5.12H158.07v17.68h13v5h-3.56c-4.77,0-9.53.06-14.3,0a1.05,1.05,0,0,1-.73-.73c-.1-1.09-.08-2.2-.08-3.3V187.28c0-.48,0-1,.07-1.53Z"/><path class="b" d="M118.64,213.56h-5.8c-.4-7.5-.06-14.95-.23-22.59h-6.29c-.13-.28-.22-.36-.21-.45.06-1.54-.43-3.55.36-4.48s2.81-.37,4.3-.39c4.46-.05,8.92,0,13.38-.1,1,0,1.27.24,1.14,1.28a34.59,34.59,0,0,0,0,4.09h-6.61Z"/><path class="b" d="M94.61,201.7c-2,0-4,0-6,0a1.25,1.25,0,0,1-.91-.74c-.23-.87.34-1.93-.78-2.6-.21-.13-.06-.38.53-.39,4.39,0,8.79-.25,13.18-.39,1.95-.06,1.29,1.63,1.47,2.55a1.3,1.3,0,0,1-1.46,1.69c-2-.11-4,0-6,0Z"/><path class="b" d="M147.08,213.56h0c-.79,0-1.62,0-2.46,0h2.46Z"/></svg>