<svg id="Layer_1" data-name="Layer 1" xmlns="http://www.w3.org/2000/svg" viewBox="0 0 526.95 530.34"><defs><style>.cls-1{fill:#d6d0d0;}.cls-2{fill:#c13a48;}</style></defs><title>techkshetra_logo</title><path class="cls-1" d="M120.46,469.67c4.6-3.92,9-7.6,13.31-11.36,4.08-3.55,8-7.23,12.13-10.77s8.29-7,14.53-5.13c1.22.36,3.53-1,4.53-2.21,15.79-19.36,29.79-39.86,38.24-63.62,1.81-5.08,3.52-10.36,4.05-15.68.51-5.06,2.77-6.65,7.33-7.77,15.54-3.81,29.4-10.92,41.08-22.09,2.74-2.62,3.21-4.58,1.33-8.14-17.55-33.14,5.06-72.94,44-74.11,15-.45,28,5.74,38.18,17.12,2,2.24,3.77,4.7,5.78,7.23C360.57,265.3,372.21,253.57,381,239c2-3.37,3.68-4.49,7.88-3.71,17,3.13,33.75.62,50.18-3.43,13.11-3.23,25.84-8,38.75-12,2.74-.86,4.38-2.13,4.73-5.56.57-5.51,4.6-8.86,9.4-11.13,9.47-4.49,19-8.9,28.46-13.34,42.83,74.34,44.07,211-59.81,299.24C355.46,578.36,206.17,562,120.46,469.67ZM479,418.91c3.05-5,5.92-9.36,8.41-13.91A215.23,215.23,0,0,0,514,314.21c1.52-24.1-1.25-47.54-7.17-70.79-1-3.89-2.67-4.9-6.74-4.61-3,.22-6.21-1.8-9.38-2.64-1.72-.45-3.9-1.28-5.26-.64-12.23,5.76-24.58,11.34-36.39,17.89-15.17,8.43-29,18.82-39.61,32.8-2.48,3.27-4.6,3.86-8.49,2.8a86.63,86.63,0,0,0-46.08-.49c-2.85.77-3.3,2-3.42,4.93A148.89,148.89,0,0,1,349,316c-.77,4-3.33,7.65-5.2,11.74ZM284.19,347.25c-.52,2.12-1,3.87-1.38,5.64Q267,428.31,251.18,503.71c-.82,3.89.13,5.31,4,6.15a213.33,213.33,0,0,0,109.66-5.08c7.47-2.32,14.72-5.38,20.47-7.5-.3-6.66-2.33-12.65-.32-16.57,2.78-5.43.79-8.69-1.43-12.69-1.32-2.36-2.66-4.71-4.08-7-14.29-23.18-29.93-45.12-53.68-59.87-1.26-.78-2.05-3.61-1.81-5.31,2.09-14.95,1.34-29.62-3.18-44.09-1.08-3.44-2.27-4.73-6.42-3.83a88.22,88.22,0,0,1-18.52,1.65C292.15,349.56,288.37,348.13,284.19,347.25ZM271,340c-1.77,2.8-3.38,5.15-4.79,7.62-7.17,12.59-10.58,26.31-11.45,40.63-.26,4.19-2.23,5.6-5.67,7a126.49,126.49,0,0,0-17.78,8.57c-20.76,12.63-37.68,29.62-53.29,48-1,1.12-.72,3.29-.9,5-.45,4.21-.16,8.64-1.44,12.57-.94,2.9-1.24,4.24,1.49,6.15a210.19,210.19,0,0,0,46.88,25c6.9,2.58,14,4.7,21.18,7.1.57-1.73,1-2.64,1.18-3.6q7.72-36.71,15.41-73.42c5.71-27.29,11.33-54.61,17.15-81.88.66-3.11,0-4.78-2.88-5.92A46.32,46.32,0,0,1,271,340Zm205.36,82.6L341,331.25c-7.2,7.21-8.09,5.2-1.58,13.32,8.74,10.89,19.77,18.89,32.31,24.78,3.31,1.55,5.06,3.1,4.4,7.18a46.08,46.08,0,0,0,.08,11.13c2,22.91,9.79,44.14,19.36,64.76,3.3,7.09,5.14,16.16,15.93,16.14a3.45,3.45,0,0,1,1.75,1c2.72,2.22,5.41,4.49,8.73,7.25A207.11,207.11,0,0,0,476.36,422.61ZM333,298.89c-.38-17.45-15.23-31.94-32.09-31.31-17.46.65-31.69,15.45-31.1,32.35.61,17.5,15.28,31.56,32.38,31S333.39,315.81,333,298.89Zm45.88-36.59a16.48,16.48,0,0,0,16.46,16.38c8.58,0,16.07-7.61,16.1-16.31a16,16,0,0,0-16-16.11C386,246.22,378.88,253.11,378.89,262.3Zm-12.8,123.37a16.29,16.29,0,0,0-16.1-16.2c-8.73-.15-16.55,7.67-16.48,16.49a16.56,16.56,0,0,0,16.26,16.11A16.21,16.21,0,0,0,366.09,385.67Zm-150.63-12c0,9.68,6.53,16.54,15.88,16.58,9.1,0,16.12-7.2,16.08-16.58,0-9-6.91-15.64-16.3-15.67A15.38,15.38,0,0,0,215.46,373.65Z" transform="translate(-20.84 -17.79)"/><path class="cls-2" d="M513.1,116a40.67,40.67,0,0,1-81.33-.44c-.25-22.24,18.71-40.49,40.52-40.43C495.24,75.18,513.2,93.16,513.1,116Z" transform="translate(-20.84 -17.79)"/><path class="cls-2" d="M20.84,246.38c-.09-21.72,18.34-39.87,40-40.56,18.15-.57,40.62,13.3,41.58,40,.78,21.87-18.39,41.17-40.23,41.61S20.92,268.65,20.84,246.38Z" transform="translate(-20.84 -17.79)"/><path class="cls-2" d="M68.07,333.48c22.52,0,40.6,17.91,40.57,40.09,0,22.8-18.57,41.46-40.93,41.2-22.15-.25-40.77-19.19-40.55-41.24S45.84,333.44,68.07,333.48Z" transform="translate(-20.84 -17.79)"/><path class="cls-2" d="M79.42,132.68c-.74-20.17,15.43-40.62,40.32-40.94,22.4-.3,41,19,40.72,40.85-.29,23-18.84,40.66-42.46,40.5C97,173,79.3,154.41,79.42,132.68Z" transform="translate(-20.84 -17.79)"/><path class="cls-2" d="M316.4,59a40.67,40.67,0,0,1,40.73-41.16c21.68-.12,40.32,18.58,40.53,40.65.2,21.2-18.9,40.56-40.06,40.59C334.69,99.07,316.53,81.4,316.4,59Z" transform="translate(-20.84 -17.79)"/><path class="cls-2" d="M227.71,23.79c22.33.05,40.79,18.57,40.62,40.76-.16,21.67-19.13,40.44-40.74,40.32A40.67,40.67,0,0,1,186.9,63.7C187,41.76,205.42,23.74,227.71,23.79Z" transform="translate(-20.84 -17.79)"/><path class="cls-2" d="M147.31,372.52a21.23,21.23,0,1,1,21.21-20.88C168.58,362.86,158.94,372.36,147.31,372.52Z" transform="translate(-20.84 -17.79)"/><path class="cls-2" d="M182.2,210.66c-11.61-.08-22-9.86-21.42-21.24.66-13.16,10.82-21.22,21.67-21.09,11.29.14,21.05,9.77,21.13,21.09A21.45,21.45,0,0,1,182.2,210.66Z" transform="translate(-20.84 -17.79)"/><path class="cls-2" d="M360,137a21.06,21.06,0,0,1-21.61,20.82c-11.1-.11-20.91-10.16-20.81-21.32s9.85-21,21.06-21A21,21,0,0,1,360,137Z" transform="translate(-20.84 -17.79)"/><path class="cls-2" d="M235,141.14a20.67,20.67,0,0,1,21-20.79,21.3,21.3,0,0,1,21.26,21.33c-.08,11.15-10.07,21-21.31,21A21.19,21.19,0,0,1,235,141.14Z" transform="translate(-20.84 -17.79)"/><path class="cls-2" d="M140.88,288.8c-11.44,0-21.11-9.65-21.09-21a21.26,21.26,0,1,1,42.51-.08A21,21,0,0,1,140.88,288.8Z" transform="translate(-20.84 -17.79)"/><path class="cls-2" d="M416,196.72c-12-.14-20.86-9.47-20.68-21.65.17-11.65,9.88-20.79,21.89-20.6,11.23.18,20.43,10.12,20.2,21.82S428,196.85,416,196.72Z" transform="translate(-20.84 -17.79)"/><path class="cls-2" d="M225,214.22c6.16.16,11.93,6.2,11.82,12.37-.12,6.45-6.29,12.51-12.51,12.29-5.9-.22-12-6.58-12-12.47C212.36,220.17,218.7,214.07,225,214.22Z" transform="translate(-20.84 -17.79)"/><path class="cls-2" d="M271.89,188.82c6.05-.11,12.42,6.33,12.39,12.54s-5.94,12.12-12.06,12.18c-6.48.06-12.44-5.88-12.39-12.36C259.88,195.13,265.92,188.93,271.89,188.82Z" transform="translate(-20.84 -17.79)"/><path class="cls-2" d="M200.21,347.29a12.23,12.23,0,0,1-12-12.51,12,12,0,0,1,12.28-11.55c6.61.12,12.37,6,12.13,12.43A12.51,12.51,0,0,1,200.21,347.29Z" transform="translate(-20.84 -17.79)"/><path class="cls-2" d="M202.57,268.75a12.22,12.22,0,0,1,11.81,12.13,12.1,12.1,0,0,1-24.2,0A12.43,12.43,0,0,1,202.57,268.75Z" transform="translate(-20.84 -17.79)"/><path class="cls-2" d="M329.14,184.53c6.5-.08,12.2,5.34,12.26,11.66.07,6.56-5.71,12.5-12.12,12.45a12.06,12.06,0,0,1-.14-24.11Z" transform="translate(-20.84 -17.79)"/><path class="cls-2" d="M375.6,230.67c-6.52,0-12.27-5.38-12.4-11.61-.14-6.7,5.79-12.5,12.71-12.42a12,12,0,0,1-.31,24Z" transform="translate(-20.84 -17.79)"/><path class="cls-2" d="M349,392.91a7.5,7.5,0,0,0,7.61-7.21,7.75,7.75,0,0,0-7.19-7.2c-3.73-.06-7.74,3.74-7.71,7.31S345.37,392.8,349,392.91Z" transform="translate(-20.84 -17.79)"/><path class="cls-2" d="M225,374.07c.09,3.64,3.54,7.23,7,7.32,3.74.1,7.27-3.61,7.24-7.6a6.94,6.94,0,0,0-7.5-7.05A7.17,7.17,0,0,0,225,374.07Z" transform="translate(-20.84 -17.79)"/><path class="cls-2" d="M300.78,312.9a12.58,12.58,0,0,1-12.64-12c-.2-6.11,6-12.28,12.5-12.34s12.25,5.92,12.2,12.46A12.2,12.2,0,0,1,300.78,312.9Z" transform="translate(-20.84 -17.79)"/><path class="cls-2" d="M394.84,254.72c4.2.1,6.9,2.83,6.89,7a6.93,6.93,0,0,1-7.38,7.12,7.38,7.38,0,0,1-6.8-7.38A7,7,0,0,1,394.84,254.72Z" transform="translate(-20.84 -17.79)"/><path class="cls-2" d="M349,392.91c-3.65-.11-7.26-3.63-7.29-7.1s4-7.37,7.71-7.31a7.75,7.75,0,0,1,7.19,7.2A7.5,7.5,0,0,1,349,392.91Z" transform="translate(-20.84 -17.79)"/><path class="cls-2" d="M225,374.07a7.17,7.17,0,0,1,6.78-7.33,6.94,6.94,0,0,1,7.5,7.05c0,4-3.5,7.7-7.24,7.6C228.57,381.3,225.12,377.71,225,374.07Z" transform="translate(-20.84 -17.79)"/></svg>