<svg xmlns="http://www.w3.org/2000/svg" viewBox="0 0 823.3 657.17"><defs><style>.a{fill:#d6d0d0;}.b{fill:#c13a48;}</style></defs><title>techkshetra_logo</title><path class="a" d="M274.8,431.9c4-3.4,7.79-6.58,11.52-9.83,3.54-3.07,7-6.25,10.51-9.32s7.17-6,12.57-4.44c1.06.31,3.06-.86,3.92-1.92,13.67-16.75,25.78-34.49,33.1-55.06a58.28,58.28,0,0,0,3.5-13.57c.44-4.38,2.4-5.76,6.35-6.72a77,77,0,0,0,35.55-19.12c2.37-2.27,2.78-4,1.15-7-15.18-28.69,4.38-63.14,38.07-64.15,13-.39,24.25,5,33,14.82,1.74,1.94,3.26,4.07,5,6.26,13.53-6.79,23.61-16.95,31.23-29.59,1.76-2.91,3.19-3.88,6.82-3.21,14.67,2.71,29.21.54,43.43-3,11.34-2.79,22.37-6.88,33.53-10.4,2.38-.74,3.8-1.84,4.1-4.81.5-4.77,4-7.67,8.14-9.64,8.2-3.88,16.42-7.7,24.63-11.54,37.07,64.34,38.14,182.59-51.76,259C478.2,526,349,511.83,274.8,431.9ZM585.15,388c2.64-4.35,5.12-8.1,7.27-12a186.23,186.23,0,0,0,23-78.58c1.31-20.86-1.09-41.14-6.21-61.27-.86-3.36-2.31-4.24-5.83-4-2.64.19-5.38-1.55-8.12-2.28-1.49-.39-3.38-1.11-4.55-.56-10.59,5-21.28,9.82-31.5,15.49-13.13,7.29-25.1,16.28-34.28,28.39-2.15,2.83-4,3.34-7.35,2.42a75,75,0,0,0-39.88-.42c-2.47.66-2.86,1.71-3,4.26a129.83,129.83,0,0,1-2.12,19.48c-.67,3.46-2.88,6.62-4.51,10.15ZM416.52,326c-.45,1.83-.88,3.34-1.2,4.88Q401.66,396.1,388,461.36c-.71,3.37.11,4.6,3.5,5.32a184.71,184.71,0,0,0,94.91-4.39c6.47-2,12.74-4.65,17.72-6.5-.26-5.76-2-10.94-.28-14.33,2.41-4.7.68-7.53-1.24-11-1.14-2.05-2.3-4.09-3.53-6.08-12.37-20-25.9-39-46.46-51.81-1.09-.68-1.78-3.12-1.57-4.59a86.06,86.06,0,0,0-2.75-38.17c-.93-3-2-4.09-5.55-3.31a76.75,76.75,0,0,1-16,1.43C423.4,328,420.14,326.71,416.52,326Zm-11.42-6.27c-1.53,2.42-2.92,4.46-4.14,6.6-6.21,10.89-9.16,22.77-9.92,35.16-.22,3.63-1.92,4.85-4.9,6.07a110.18,110.18,0,0,0-15.4,7.41c-18,10.93-32.61,25.64-46.12,41.55-.81,1-.61,2.85-.77,4.31-.39,3.65-.14,7.48-1.25,10.89-.81,2.51-1.07,3.67,1.29,5.32a181.48,181.48,0,0,0,40.58,21.64c6,2.24,12.09,4.07,18.32,6.15.5-1.5.85-2.29,1-3.11q6.69-31.77,13.34-63.55c4.94-23.62,9.81-47.26,14.85-70.86.57-2.7,0-4.14-2.5-5.13A40.76,40.76,0,0,1,405.1,319.68Zm177.73,71.49L465.68,312.1c-6.22,6.24-7,4.5-1.36,11.53a77,77,0,0,0,28,21.44c2.87,1.35,4.38,2.69,3.81,6.22a39.31,39.31,0,0,0,.07,9.63c1.73,19.83,8.47,38.2,16.76,56.05,2.85,6.14,4.44,14,13.78,14a2.9,2.9,0,0,1,1.51.85c2.36,1.92,4.68,3.88,7.56,6.28A179.44,179.44,0,0,0,582.83,391.17ZM458.77,284.09C458.44,269,445.59,256.45,431,257c-15.1.56-27.42,13.38-26.91,28,.53,15.15,13.22,27.31,28,26.85S459.09,298.73,458.77,284.09Zm39.71-31.66a14.26,14.26,0,0,0,14.24,14.17,14.41,14.41,0,0,0,13.93-14.11,13.83,13.83,0,0,0-13.83-14C504.63,238.5,498.47,244.47,498.48,252.43ZM487.4,359.2a14.12,14.12,0,0,0-13.94-14c-7.55-.12-14.32,6.65-14.26,14.28a14.33,14.33,0,0,0,14.07,13.95A14,14,0,0,0,487.4,359.2ZM357,348.8c0,8.38,5.65,14.31,13.74,14.35,7.88,0,14-6.24,13.92-14.35,0-7.82-6-13.54-14.11-13.57A13.32,13.32,0,0,0,357,348.8Z" transform="translate(-25.64 -40.81)"/><path class="b" d="M614.64,125.79a35.2,35.2,0,0,1-70.39-.38c-.23-19.24,16.18-35,35.06-35A35,35,0,0,1,614.64,125.79Z" transform="translate(-25.64 -40.81)"/><path class="b" d="M188.58,238.64c-.07-18.79,15.88-34.5,34.61-35.1,15.72-.5,35.17,11.51,36,34.58.67,18.93-15.92,35.63-34.82,36S188.66,257.92,188.58,238.64Z" transform="translate(-25.64 -40.81)"/><path class="b" d="M229.46,314a34.84,34.84,0,0,1,35.12,34.7c0,19.73-16.07,35.88-35.43,35.66-19.17-.22-35.28-16.61-35.09-35.7S210.22,314,229.46,314Z" transform="translate(-25.64 -40.81)"/><path class="b" d="M239.29,140.24c-.64-17.46,13.35-35.16,34.9-35.44,19.38-.25,35.47,16.48,35.23,35.36-.24,19.88-16.3,35.19-36.74,35.05C254.51,175.09,239.18,159,239.29,140.24Z" transform="translate(-25.64 -40.81)"/><path class="b" d="M444.39,76.43a35.2,35.2,0,0,1,35.26-35.62c18.76-.11,34.89,16.07,35.07,35.17.18,18.35-16.36,35.11-34.67,35.14C460.22,111.15,444.51,95.86,444.39,76.43Z" transform="translate(-25.64 -40.81)"/><path class="b" d="M367.63,46c19.33,0,35.3,16.07,35.16,35.28-.14,18.75-16.56,35-35.26,34.89a35.2,35.2,0,0,1-35.21-35.63C332.4,61.55,348.34,46,367.63,46Z" transform="translate(-25.64 -40.81)"/><path class="b" d="M298.05,347.82a18.38,18.38,0,1,1,18.35-18.08C316.45,339.46,308.11,347.68,298.05,347.82Z" transform="translate(-25.64 -40.81)"/><path class="b" d="M328.25,207.73c-10.05-.07-19-8.53-18.54-18.38.57-11.4,9.36-18.37,18.75-18.25a18.82,18.82,0,0,1,18.29,18.25A18.56,18.56,0,0,1,328.25,207.73Z" transform="translate(-25.64 -40.81)"/><path class="b" d="M482.14,144a18.24,18.24,0,0,1-18.7,18c-9.62-.1-18.1-8.8-18-18.46s8.53-18.21,18.23-18.21A18.2,18.2,0,0,1,482.14,144Z" transform="translate(-25.64 -40.81)"/><path class="b" d="M374,147.56a17.88,17.88,0,0,1,18.21-18A18.43,18.43,0,0,1,410.57,148c-.07,9.65-8.72,18.18-18.44,18.19A18.34,18.34,0,0,1,374,147.56Z" transform="translate(-25.64 -40.81)"/><path class="b" d="M292.48,275.36A18.32,18.32,0,1,1,311,257.15,18.17,18.17,0,0,1,292.48,275.36Z" transform="translate(-25.64 -40.81)"/><path class="b" d="M530.63,195.66c-10.34-.12-18.06-8.19-17.9-18.73.15-10.09,8.56-18,18.95-17.83,9.72.16,17.68,8.76,17.48,18.88S541,195.78,530.63,195.66Z" transform="translate(-25.64 -40.81)"/><path class="b" d="M365.25,210.81c5.33.14,10.33,5.37,10.23,10.7-.1,5.59-5.44,10.84-10.82,10.64-5.11-.18-10.4-5.69-10.36-10.79C354.35,216,359.83,210.68,365.25,210.81Z" transform="translate(-25.64 -40.81)"/><path class="b" d="M405.87,188.83c5.24-.1,10.75,5.48,10.72,10.85s-5.14,10.49-10.43,10.54a11.07,11.07,0,0,1-10.73-10.69C395.47,194.29,400.71,188.93,405.87,188.83Z" transform="translate(-25.64 -40.81)"/><path class="b" d="M343.83,326a10.6,10.6,0,0,1-10.36-10.83,10.36,10.36,0,0,1,10.63-10c5.72.1,10.7,5.2,10.5,10.75A10.85,10.85,0,0,1,343.83,326Z" transform="translate(-25.64 -40.81)"/><path class="b" d="M345.87,258A10.58,10.58,0,0,1,356.1,268.5a10.48,10.48,0,0,1-21,0A10.75,10.75,0,0,1,345.87,258Z" transform="translate(-25.64 -40.81)"/><path class="b" d="M455.42,185.11A10.58,10.58,0,0,1,466,195.21c.06,5.68-4.95,10.81-10.49,10.77a10.44,10.44,0,0,1-.12-20.87Z" transform="translate(-25.64 -40.81)"/><path class="b" d="M495.63,225.05c-5.64,0-10.62-4.66-10.73-10.05-.13-5.8,5-10.81,11-10.75a10.4,10.4,0,0,1-.26,20.8Z" transform="translate(-25.64 -40.81)"/><path class="b" d="M472.62,365.47a6.5,6.5,0,0,0,6.59-6.25A6.71,6.71,0,0,0,473,353c-3.23-.05-6.7,3.24-6.67,6.33S469.47,365.37,472.62,365.47Z" transform="translate(-25.64 -40.81)"/><path class="b" d="M365.31,349.16c.08,3.15,3.07,6.26,6.1,6.34,3.23.08,6.29-3.13,6.26-6.58a6,6,0,0,0-6.49-6.11A6.21,6.21,0,0,0,365.31,349.16Z" transform="translate(-25.64 -40.81)"/><path class="b" d="M430.87,296.22a10.88,10.88,0,0,1-10.93-10.41c-.18-5.29,5.22-10.63,10.81-10.69s10.61,5.13,10.56,10.79A10.57,10.57,0,0,1,430.87,296.22Z" transform="translate(-25.64 -40.81)"/><path class="b" d="M512.28,245.86a5.71,5.71,0,0,1,6,6,6,6,0,0,1-6.39,6.17,6.39,6.39,0,0,1-5.89-6.39A6,6,0,0,1,512.28,245.86Z" transform="translate(-25.64 -40.81)"/><path class="b" d="M472.62,365.47c-3.15-.1-6.28-3.15-6.3-6.15s3.44-6.38,6.67-6.33a6.71,6.71,0,0,1,6.22,6.23A6.5,6.5,0,0,1,472.62,365.47Z" transform="translate(-25.64 -40.81)"/><path class="b" d="M365.31,349.16a6.21,6.21,0,0,1,5.87-6.35,6,6,0,0,1,6.49,6.11c0,3.45-3,6.66-6.26,6.58C368.38,355.42,365.39,352.31,365.31,349.16Z" transform="translate(-25.64 -40.81)"/><path class="a" d="M93,605.71H54.92v60.65a8.61,8.61,0,0,0,1.66,5A5,5,0,0,0,60.79,674Q72,674,72,650.79l15.12,8.66q-8.66,19.18-26.79,19.11-10.53-.07-16.41-9.64a15.72,15.72,0,0,1-2.56-8.29V605.71H25.64v-9H41.37V571.46l13.55,9.38v15.84H93Z" transform="translate(-25.64 -40.81)"/><path class="a" d="M171.28,605.71H150.73v14.87a13.76,13.76,0,0,1,5.12,2v8.9a55.85,55.85,0,0,0-18.67-3.16,39.69,39.69,0,0,0-13.54,2.35q-8.73,3.09-8.81,8.84-.15,6,17.08,6.05c.26,0,1.89-.08,4.9-.23l4.51-.22v6.92q-10.23.3-12.79.53-18,1.57-18,10.38c0,3.27,2.08,5.82,6.25,7.68a25.46,25.46,0,0,0,10.53,2.18q24.47,0,39.59-21.67v19q-12.94,8.2-30.63,8.2-19.35,0-33.42-9-6.84-4.38-6.85-10t4.82-9.57a47.84,47.84,0,0,1,9.71-5.73l-5-2.86c-3-1.71-4.44-4-4.44-6.86q0-9.35,14.08-13.41a86.33,86.33,0,0,1,24-3.09v-12.2H91v-9h80.31Z" transform="translate(-25.64 -40.81)"/><path class="a" d="M250,605.71H234.27V626.8a71.83,71.83,0,0,1,6,6,30.21,30.21,0,0,1,3.84,7.48h-9.86q0-8.19-4.64-12.79c-3.09-3.06-7.39-4.59-12.87-4.59a29.54,29.54,0,0,0-16.08,4.73,34,34,0,0,0-11.55,12.18A28.43,28.43,0,0,0,185,653.9q0,8,5.79,12.25,5.11,3.76,13.47,3.76,13.94,0,19.42-7.68h16q-2,8.13-15,13.7A27.56,27.56,0,0,1,214,678.41a40,40,0,0,1-19.57-5.49,48,48,0,0,1-15.5-13.36q-6.09-8.16-6.1-16.15,0-6,5.35-13.62,11.2-15.94,27.32-15.95,10.61,0,16.78,4.44V605.71H169.1v-9H250Z" transform="translate(-25.64 -40.81)"/><path class="a" d="M331.59,605.71H270.85v22.73q8.2-9,15.2-11.52a25.64,25.64,0,0,1,8.81-1.43q18.36,0,27.47,18.07a34.34,34.34,0,0,1,4,15.57q0,14-11.52,25.29a68.73,68.73,0,0,1-5.72,5.2l-12.34-7.38q4.67-4.89,10.61-12,6.7-8.06,6.78-20.32a20.62,20.62,0,0,0-3.31-12.2A12,12,0,0,0,300,622.12q-6.48.15-13.85,4.89a40.81,40.81,0,0,0-11,10.08q-4.74,6.33-4.74,12.2v29.87l-14.07-7.53V605.71h-8.28v-9h8.28q0-22.09-11.52-37.73-6.93-9.39-12.79-13.23l15.2-.15q12.65,6.91,20.09,29.84a68.59,68.59,0,0,1,3.54,21.27h60.74Z" transform="translate(-25.64 -40.81)"/><path class="a" d="M400.91,605.71H351.53V625.2a134.09,134.09,0,0,1,14.53-6.7,38.56,38.56,0,0,1,10-1.13,24.37,24.37,0,0,1,14.37,4.44q7.08,4.89,7.08,12.64,0,10.45-11.95,15.19a24,24,0,0,1-8.57,2l17.41,21.26-9.54,6.91L358,647.86l5-10.32a30.3,30.3,0,0,0,8.36,1.13,17.11,17.11,0,0,0,10.46-3,11,11,0,0,0,4.59-9.48q0-6-8.54-6-6,0-12.74,5.81a50.71,50.71,0,0,0-8.77,10q-4.8,7.1-4.8,12.15v31.62L338.44,674V605.71h-9.56v-9H338q0-21.57-7.83-35.85a69.68,69.68,0,0,0-5.8-8.34,58.31,58.31,0,0,1-5.64-8.5H334q4.44,4.14,9.18,13.6,8.06,16.1,8.05,39.09h49.68Z" transform="translate(-25.64 -40.81)"/><path class="a" d="M476.47,605.71h-8.2v28.6q-4.45-2.64-12.8-4.52a61.7,61.7,0,0,0-13.55-1.8q-13.77,0-23.1,4.89-5.26,2.79-5.27,7.3,0,6,6.32,6a30.68,30.68,0,0,0,10-2.26q4-1.43,10.24-3.61,2.63-.9,9.33-.9,13,0,19.42,8.05a14,14,0,0,1,3.08,9q0,12-15.05,18.82A34.22,34.22,0,0,1,445,678.56q5.42,5.41,10.31,5.42a14.13,14.13,0,0,0,3.39-.45l7.6,12.42c-1.56,1.35-4.74,2-9.56,2a13.64,13.64,0,0,1-9.93-4q-2.19-2.18-6.18-9.11c-2.25-4-4.14-6-5.64-6q-13.92-.37-21.45-5a9.05,9.05,0,0,1-4.74-8.05q0-6.33,7.52-6.32,2.79,0,11.63,4.32t14.57,4.33A44.44,44.44,0,0,0,464,662.68q4.89-2.62,4.89-6.47,0-5.72-9-5.72-2.79,0-18,4.06-9,2.41-11,2.41-12,0-19.72-11.29A20,20,0,0,1,407.38,634q-.08-12.72,17.38-17.16A54.89,54.89,0,0,1,438.24,615q7.22,0,20.47,3.54V605.71H398.8v-9h77.67Z" transform="translate(-25.64 -40.81)"/><path class="a" d="M558.35,605.71H497.62v22.73q8.2-9,15.2-11.52a25.6,25.6,0,0,1,8.81-1.43q18.36,0,27.47,18.07a34.34,34.34,0,0,1,4,15.57q0,14-11.52,25.29a72.17,72.17,0,0,1-5.72,5.2l-12.34-7.38q4.66-4.89,10.61-12,6.69-8.06,6.77-20.32a20.55,20.55,0,0,0-3.31-12.2,12,12,0,0,0-10.83-5.56q-6.48.15-13.85,4.89a40.81,40.81,0,0,0-11,10.08q-4.74,6.33-4.74,12.2v29.87l-14.08-7.53V605.71h-8.28v-9h8.28q0-22.09-11.51-37.73-6.93-9.39-12.8-13.23l15.21-.15q12.63,6.91,20.09,29.84a68.59,68.59,0,0,1,3.54,21.27h60.73Z" transform="translate(-25.64 -40.81)"/><path class="a" d="M636.7,605.71H616.16v14.87a13.91,13.91,0,0,1,5.12,2v8.9a55.93,55.93,0,0,0-18.67-3.16,39.75,39.75,0,0,0-13.55,2.35q-8.73,3.09-8.8,8.84-.15,6,17.08,6.05c.25,0,1.88-.08,4.89-.23l4.52-.22v6.92q-10.25.3-12.8.53-18,1.57-18,10.38c0,3.27,2.08,5.82,6.24,7.68a25.5,25.5,0,0,0,10.54,2.18q24.46,0,39.59-21.67v19q-12.95,8.2-30.63,8.2-19.35,0-33.42-9-6.85-4.38-6.85-10t4.82-9.57a47.27,47.27,0,0,1,9.71-5.73l-5-2.86c-3-1.71-4.44-4-4.44-6.86q0-9.35,14.07-13.41a86.43,86.43,0,0,1,24-3.09v-12.2H556.4v-9h80.3Z" transform="translate(-25.64 -40.81)"/><path class="a" d="M702.33,605.71H664.25v60.65a8.61,8.61,0,0,0,1.66,5,5,5,0,0,0,4.21,2.64q11.22,0,11.21-23.18l15.13,8.66q-8.65,19.18-26.79,19.11-10.54-.07-16.41-9.64a15.72,15.72,0,0,1-2.56-8.29V605.71H635v-9H650.7V571.46l13.55,9.38v15.84h38.08Z" transform="translate(-25.64 -40.81)"/><path class="a" d="M776.69,605.71H700.6v-9h76.09Zm-6.24,27.09q0,4.44-5.35,10a32.14,32.14,0,0,1-9.48,7.08l-11.29-12.8a19.29,19.29,0,0,0,9.71-3.76q5.26-3.76,5.27-8.58c0-1.71-1.11-3.16-3.31-4.37a11.26,11.26,0,0,0-5.65-1.65q-5.79,0-12.42,5.57-13.47,11.28-13.47,25V681.2L710,673.67V618h14.45v5.72q3.24-3.24,13.44-6.78a31.19,31.19,0,0,1,10.27-1.73,24.26,24.26,0,0,1,18.58,8.35A13.41,13.41,0,0,1,770.45,632.8Z" transform="translate(-25.64 -40.81)"/><path class="a" d="M849,605.71H798.82v12.11a.86.86,0,0,1,.6.3.81.81,0,0,0,.53.31,1.51,1.51,0,0,1-.68-.08q0-.37,11.22-2.41a45.9,45.9,0,0,1,8.2-.75q16.93,0,21.75,9.48,3.24,6.33,3.24,25.52v29q-1.59-.6-12-4.89c0-1.6-.33-2.63-1-3.08q-4,2.32-6.55,3.53a43.73,43.73,0,0,1-18.89,3.84q-14.82,0-22.88-9.33a15,15,0,0,1-3.91-10.09q0-6.24,6.17-12.41,12-12,29.73-12,10.77,0,17.31,5V632.8a18.58,18.58,0,0,0-6.43-5.64,19.67,19.67,0,0,0-8.55-1.28,59.92,59.92,0,0,0-22.2,4.44q-4.51,1.88-8.8,3.39v-5.59q1-.82,2.85-2.49l.38-.45V605.71H773.53v-9H849Zm-17.24,47.71q0-3.3-7.9-5.94a35.81,35.81,0,0,0-10.91-2.18q-15.89,0-25.44,11.44-3.84,4.59-3.84,7.52,1.57,5.5,12.42,5.5a48.63,48.63,0,0,0,25.59-7Q831.71,656.66,831.71,653.42Z" transform="translate(-25.64 -40.81)"/></svg>